<svg id="Layer_1" data-name="Layer 1" xmlns="http://www.w3.org/2000/svg" style="fill: #444;" viewBox="0 0 53.75 47.99"><title>bubble_arrow_up_right</title><path d="M300.21,237c12.27-.05,28.64-0.12,34.49-13.14,3.77-8.38,3.28-18.1,3.14-27.21-0.63.88-1.16,1.94-1.53,2.58-1.45,2.48-2.57,5.13-3.89,7.67-0.89,1.71-3.48.2-2.59-1.51C331.65,201.88,336,189,342,192.68c2.82,1.75,4.66,5.67,6.14,8.47a57.74,57.74,0,0,1,4.31,9.73c0.57,1.85-2.32,2.64-2.89.8a47.25,47.25,0,0,0-7.61-14.84,8.85,8.85,0,0,0-1.11-1.28c0.12,10.73,1,22.88-4.82,32.29-7.3,11.89-23.43,12.1-35.8,12.15A1.5,1.5,0,0,1,300.21,237Z" transform="translate(-298.76 -192.02)"/></svg>