<svg id="Layer_1"  data-name="Layer 1"  style="fill: #444;" xmlns="http://www.w3.org/2000/svg" viewBox="0 0 47.99 53.75">
	<path d="M346.63,190.59c-0.05,12.27-.12,28.64-13.14,34.49-8.38,3.77-18.1,3.28-27.21,3.14,0.88-.63,1.94-1.16,2.58-1.53,2.48-1.45,5.13-2.57,7.67-3.89,1.71-.89.2-3.48-1.51-2.59-3.52,1.83-16.42,6.19-12.71,12.16,1.75,2.82,5.67,4.66,8.47,6.14a57.74,57.74,0,0,0,9.73,4.31c1.85,0.57,2.64-2.32.8-2.89a47.25,47.25,0,0,1-14.84-7.61,8.85,8.85,0,0,1-1.28-1.11c10.73,0.12,22.88,1,32.29-4.82,11.89-7.3,12.1-23.43,12.15-35.8A1.5,1.5,0,0,0,346.63,190.59Z" transform="translate(-301.64 -189.14)"/></svg>