<svg id="Layer_1" data-name="Layer 1" xmlns="http://www.w3.org/2000/svg" viewBox="0 0 43.93 27.49"><defs><style>.cls-1{fill:#444;}</style></defs><title>bubble-arrow-down-left</title><path class="cls-1" d="M43.45,0.44A1.51,1.51,0,0,0,41,.84a18.79,18.79,0,0,1-9.19,8.84C23.47,13.45,13.75,13,4.64,12.82a29.44,29.44,0,0,1,2.58-1.53C9.7,9.84,12.35,8.72,14.89,7.4c1.71-.89.2-3.48-1.51-2.59C9.86,6.64-3,11,.67,17c1.75,2.82,5.67,4.66,8.47,6.14a57.74,57.74,0,0,0,9.73,4.31c1.85,0.57,2.64-2.32.8-2.89A47.25,47.25,0,0,1,4.83,16.92a8.85,8.85,0,0,1-1.28-1.11c10.73,0.12,22.88,1,32.29-4.82A21.36,21.36,0,0,0,43.78,2.2,1.5,1.5,0,0,0,43.49.47Z" transform="translate(-0.01)"/></svg>