<svg id="Layer_1" data-name="Layer 1"   style="fill: #444;" xmlns="http://www.w3.org/2000/svg" viewBox="0 0 138.95 20.2"><title>bubble_arrow_straight_right</title><path d="M167.51,307.09c18.79,0.44,37.56.21,56.34,0.36,12.59,0.1,25.18.6,37.78,0.66,7.1,0,14.2,0,21.3-.06,4.43,0,9.14.49,13.65,0.12-4.15,2.21-8,4.52-12.22,6.41-1.76.78-.39,3.36,1.36,2.59,6.37-2.82,12.26-6.59,18.56-9.55,1.13-.53.8-2,0-2.59-4.56-3.46-10.71-3.73-15-7.52a1.45,1.45,0,0,0-2,2.12c3.17,2.76,7.11,3.8,10.89,5.36-5.52.9-11.69,0.05-17.16,0.08-7.1,0-14.2.09-21.3,0-12.35-.09-24.7-0.58-37.06-0.66-18.38-.13-36.75.08-55.13-0.35C165.57,304,165.57,307,167.51,307.09Z" transform="translate(-166.06 -297.13)"/></svg>