<svg id="fill" xmlns="http://www.w3.org/2000/svg" viewBox="0 0 506.55 469.94"><path d="M588.36,391.3L452.17,155.4c-15.4-26.68-53.91-26.68-69.32,0L246.65,391.3c-15.4,26.68,3.85,60,34.66,60H553.7C584.51,451.33,603.77,418,588.36,391.3Z" transform="translate(-164.23 -58.39)" style="fill:#144d0b"/><path style="fill:#fff" d="M417.51,135.39a39.65,39.65,0,0,1,34.66,20l136.2,235.9c15.4,26.68-3.85,60-34.66,60H281.31c-30.81,0-50.06-33.35-34.66-60l136.2-235.9a39.65,39.65,0,0,1,34.66-20m0-77A116.64,116.64,0,0,0,316.17,116.9L180,352.8A116.94,116.94,0,0,0,281.31,528.33H553.7A116.94,116.94,0,0,0,655,352.8L518.85,116.9A116.64,116.64,0,0,0,417.51,58.39h0Z" transform="translate(-164.23 -58.39)"/></svg>