<svg id="Layer_1" data-name="Layer 1" xmlns="http://www.w3.org/2000/svg" viewBox="0 0 196.94 178.38"><defs><style>.cls-1{fill:#1acfff;}.cls-2{fill:#ffffff;}</style></defs><title>icon_shark_attacks</title><path class="cls-1" d="M112.32,157.64s1.29,1.07,1.32,1.07c0.71-.42,4.93-4,6-4.9,5.24-4.33,12.58-7.65,26.47-7.65,12.7,0,23,6.38,28.46,10.56-9-31.82-33.46-71.11-86-94.49-9.31-4.14-6.75,3.85-6.75,3.85a359.34,359.34,0,0,1,8.58,73.6c0,0.15.1,7.55,0.1,7.7,8.55,2.12,11.92,3,16,6.12A57,57,0,0,0,112.32,157.64Z" transform="translate(-31.28 -40.05)"/><path class="cls-2" d="M84.2,61.05a11.3,11.3,0,0,1,4.36,1.19c52.56,23.38,77,62.66,86,94.49-5.5-4.17-15.75-10.56-28.46-10.56-13.89,0-21.23,3.32-26.47,7.65-1.09.9-5.31,4.47-6,4.9,0,0-1.32-1.07-1.32-1.07a57,57,0,0,1-5.81-4.13c-4.09-3.13-7.46-4-16-6.12,0-.15-0.1-7.55-0.1-7.7a359.34,359.34,0,0,0-8.58-73.6s-1.62-5,2.38-5m0-21A23.37,23.37,0,0,0,65.06,49.6a25.51,25.51,0,0,0-3.55,21.88,344,344,0,0,1,7.89,68.43c0,0.07,0,1.49,0,3.1,0,2,.06,4.39.06,4.61a21,21,0,0,0,15.94,20.16,78.6,78.6,0,0,1,8,2.23h0l0.26,0.19c2.72,2.08,4.79,3.64,6.68,4.84a21,21,0,0,0,12,4.65q0.61,0,1.22,0a21,21,0,0,0,10.77-3c1.76-1.05,3.15-2.16,7.77-6l0.85-.71c0.94-.78,3.42-2.83,13.08-2.83,6.19,0,12,3.41,15.75,6.28A21,21,0,0,0,194.79,151a161.09,161.09,0,0,0-30.7-58c-17.4-21.07-39.94-37.86-67-49.89a31.44,31.44,0,0,0-12.9-3h0Z" transform="translate(-31.28 -40.05)"/><path class="cls-1" d="M207.14,173.73a8.26,8.26,0,0,0-3.24-5.46l-0.76-.57-0.08-.06c-4.23-3.1-9.17-1.34-11.66,1.9l-0.65.86-1.68,2.28c-0.61.83-1.43,1.95-1.71,2.31A13.45,13.45,0,0,1,177.16,180c-4.65,0-6.48-1.58-10.12-4.72-4.4-3.8-10.44-9-21.69-9s-17.29,5.2-21.69,9c-3.64,3.14-5.47,4.72-10.12,4.72s-6.48-1.58-10.12-4.72c-4.4-3.8-10.44-9-21.69-9a29.21,29.21,0,0,0-13.12,2.93,36.25,36.25,0,0,0-9.93,7.47c-1.06,1.11-2,2.22-2.93,3.29-0.46.53-.92,1.06-1.38,1.59a8.26,8.26,0,0,0,1.23,12.11l0.77,0.58c2.25,1.68,7.21,3.26,11.52-1.53l1-1.15c0.74-.85,1.5-1.73,1.61-1.87a20.2,20.2,0,0,1,2.83-2.81,14,14,0,0,1,4.71-2.76,13.15,13.15,0,0,1,3.67-.46c4.65,0,6.48,1.58,10.12,4.72,4.4,3.8,10.44,9,21.69,9s17.29-5.2,21.69-9c3.64-3.14,5.47-4.72,10.12-4.72s6.48,1.58,10.12,4.72c4.4,3.8,10.44,9,21.69,9a30.53,30.53,0,0,0,24.16-11.9c0.91-1.17,1.77-2.34,2.6-3.46,0.54-.73,1.08-1.46,1.62-2.19A8.26,8.26,0,0,0,207.14,173.73Z" transform="translate(-31.28 -40.05)"/><path class="cls-2" d="M198.3,166a8,8,0,0,1,4.77,1.62l0.08,0.06,0.76,0.57a8.26,8.26,0,0,1,1.64,11.61c-0.55.72-1.09,1.45-1.62,2.19-0.83,1.13-1.69,2.3-2.6,3.46a30.53,30.53,0,0,1-24.16,11.9c-11.26,0-17.29-5.2-21.69-9-3.64-3.14-5.47-4.72-10.12-4.72s-6.48,1.58-10.12,4.72c-4.4,3.8-10.44,9-21.69,9s-17.29-5.2-21.69-9c-3.64-3.14-5.47-4.72-10.12-4.72a13.15,13.15,0,0,0-3.67.46,14,14,0,0,0-4.71,2.76,20.2,20.2,0,0,0-2.83,2.81c-0.11.14-.87,1-1.61,1.87l-1,1.15a8.3,8.3,0,0,1-11.52,1.53l-0.77-.58a8.26,8.26,0,0,1-1.23-12.11c0.47-.52.92-1.06,1.38-1.59,0.92-1.07,1.88-2.18,2.93-3.29a36.25,36.25,0,0,1,9.93-7.47,29.21,29.21,0,0,1,13.12-2.93c11.26,0,17.29,5.2,21.69,9,3.64,3.14,5.47,4.72,10.12,4.72s6.48-1.58,10.12-4.72c4.41-3.8,10.44-9,21.69-9s17.29,5.2,21.69,9c3.64,3.14,5.47,4.72,10.12,4.72A13.45,13.45,0,0,0,187.37,175c0.27-.36,1.1-1.48,1.71-2.31l1.68-2.28,0.65-.86a8.91,8.91,0,0,1,6.9-3.52m0-21a29.92,29.92,0,0,0-22.46,10.39,51.1,51.1,0,0,0-62.29,1,49.79,49.79,0,0,0-31.81-11.11,50,50,0,0,0-22.46,5.12,57.46,57.46,0,0,0-15.8,11.8c-1.42,1.49-2.64,2.91-3.62,4l-0.1.12-1.07,1.23A29.26,29.26,0,0,0,43,210.55l0.76,0.57a29.23,29.23,0,0,0,38.67-3.22,51.1,51.1,0,0,0,62.88-.57,49.78,49.78,0,0,0,31.81,11.11,51.4,51.4,0,0,0,40.71-20c1.1-1.41,2.1-2.76,3-4,0.48-.65,1-1.31,1.45-2a29.26,29.26,0,0,0-5.83-41.11l-0.71-.53-0.15-.12-0.12-.09A28.9,28.9,0,0,0,198.3,145h0Z" transform="translate(-31.28 -40.05)"/></svg>