<svg xmlns="http://www.w3.org/2000/svg" xmlns:xlink="http://www.w3.org/1999/xlink" preserveAspectRatio="xMidYMid" width="72" height="83" viewBox="0 0 72 83">
  <defs>
    <style>

      .cls-2 {
        fill: #ffffff;
      }
    </style>
  </defs>
  <path d="M36.000,83.000 C16.118,83.000 -0.000,66.882 -0.000,47.000 C-0.000,34.519 6.353,23.524 16.000,17.066 C16.000,17.066 16.000,20.757 16.000,20.757 C8.101,26.786 3.000,36.295 3.000,47.000 C3.000,65.225 17.775,80.000 36.000,80.000 C54.225,80.000 69.000,65.225 69.000,47.000 C69.000,36.295 63.899,26.786 56.000,20.757 C56.000,20.757 56.000,17.066 56.000,17.066 C65.647,23.524 72.000,34.519 72.000,47.000 C72.000,66.882 55.882,83.000 36.000,83.000 ZM32.000,10.000 C32.000,10.000 50.000,10.000 50.000,10.000 C50.000,10.000 50.000,28.000 50.000,28.000 C50.000,28.000 32.000,28.000 32.000,28.000 C32.000,28.000 32.000,10.000 32.000,10.000 ZM29.000,26.000 C29.000,26.000 27.000,26.000 27.000,26.000 C27.000,26.000 27.000,5.000 27.000,5.000 C27.000,5.000 29.000,5.000 29.000,5.000 C29.000,5.000 48.000,5.000 48.000,5.000 C48.000,5.000 48.000,7.000 48.000,7.000 C48.000,7.000 29.000,7.000 29.000,7.000 C29.000,7.000 29.000,26.000 29.000,26.000 ZM37.547,35.314 C37.547,35.314 37.547,56.979 37.547,56.979 C37.547,56.979 44.839,49.612 44.839,49.612 C44.839,49.612 46.312,51.101 46.312,51.101 C46.312,51.101 36.505,61.008 36.505,61.008 C36.505,61.008 26.699,51.101 26.699,51.101 C26.699,51.101 28.172,49.612 28.172,49.612 C28.172,49.612 35.464,56.979 35.464,56.979 C35.464,56.979 35.464,35.314 35.464,35.314 C35.464,35.314 37.547,35.314 37.547,35.314 ZM24.000,21.000 C24.000,21.000 22.000,21.000 22.000,21.000 C22.000,21.000 22.000,0.000 22.000,0.000 C22.000,0.000 24.000,0.000 24.000,0.000 C24.000,0.000 43.000,0.000 43.000,0.000 C43.000,0.000 43.000,2.000 43.000,2.000 C43.000,2.000 24.000,2.000 24.000,2.000 C24.000,2.000 24.000,21.000 24.000,21.000 Z" id="path-1" class="cls-2" fill-rule="evenodd"/>
</svg>
