<?xml version="1.0" standalone="no"?>
<!DOCTYPE svg PUBLIC "-//W3C//DTD SVG 1.1//EN" "http://www.w3.org/Graphics/SVG/1.1/DTD/svg11.dtd" >
<svg xmlns="http://www.w3.org/2000/svg">
<metadata></metadata>
<defs>
<font id="relativebook_italic" horiz-adv-x="1255" >
<font-face units-per-em="2048" ascent="1638" descent="-410" />
<missing-glyph horiz-adv-x="475" />
<glyph horiz-adv-x="0" />
<glyph horiz-adv-x="682" />
<glyph unicode=" "  horiz-adv-x="475" />
<glyph unicode="&#x09;" horiz-adv-x="475" />
<glyph unicode="&#xa0;" horiz-adv-x="475" />
<glyph unicode="!" horiz-adv-x="718" d="M131 20l33 164q3 21 24 21h172q17 0 17 -21l-33 -164q-3 -20 -25 -20h-172q-16 0 -16 20zM225 416l195 997q3 21 24 21h140q16 0 16 -21l-194 -997q-3 -21 -25 -21h-139q-17 0 -17 21z" />
<glyph unicode="&#x22;" horiz-adv-x="782" d="M150 983l83 430q3 21 25 21h123q16 0 16 -21l-84 -430q-3 -20 -24 -20h-123q-16 0 -16 20zM539 983l84 430q3 21 24 21h123q16 0 16 -21l-84 -430q-3 -20 -24 -20h-123q-16 0 -16 20z" />
<glyph unicode="#" horiz-adv-x="1533" d="M63 426l25 123q5 20 23 20h258l106 295h-227q-17 0 -17 21l25 123q5 20 25 20h254l143 385q9 21 27 21h139q16 0 16 -11q0 -4 -2 -10l-143 -385h334l143 385q9 21 27 21h139q16 0 16 -11q0 -4 -2 -10l-143 -385h231q17 0 17 -20l-25 -123q-3 -21 -25 -21h-258l-106 -295 h227q17 0 17 -20l-25 -123q-3 -20 -25 -20h-256l-141 -386q-6 -20 -26 -20h-140q-10 0 -12 4.5t-2 15.5l141 386h-334l-141 -386q-9 -20 -27 -20h-139q-10 0 -12 4.5t-2 15.5l141 386h-227q-17 0 -17 20zM549 569h334l106 295h-334z" />
<glyph unicode="$" horiz-adv-x="1206" d="M37 362q0 47 4 72q3 21 25 21h135q16 0 16 -21q-4 -32 -4 -45q0 -89 52.5 -150.5t152.5 -84.5l100 518q-340 97 -340 348q0 102 39 183.5t107 134t156 81.5t190 33l32 166q3 20 25 20h131q16 0 16 -20l-34 -176q145 -31 224 -124.5t79 -215.5q0 -29 -2 -47 q-3 -21 -25 -21h-135q-16 0 -16 21q2 10 2 30q0 70 -41.5 119.5t-118.5 71.5l-92 -481q178 -52 274 -133t96 -216q0 -220 -140 -336.5t-390 -127.5l-31 -166q-3 -21 -24 -21h-131q-17 0 -17 21l33 176q-151 29 -249.5 128.5t-98.5 241.5zM358 1055q0 -76 46 -124.5 t147 -86.5l86 442q-52 -5 -99 -20t-89 -41t-66.5 -70t-24.5 -100zM588 145q143 12 230 81.5t87 187.5q0 78 -56.5 129.5t-166.5 85.5z" />
<glyph unicode="%" horiz-adv-x="1746" d="M131 72q0 6 8 14l1395 1341q7 7 14 7q8 0 15 -7l45 -51q8 -8 8 -14t-8 -14l-1395 -1342q-6 -6 -14 -6q-9 0 -15 6l-45 51q-8 8 -8 15zM145 1020q0 181 115.5 297.5t292.5 116.5q134 0 221.5 -90t87.5 -230q0 -181 -115 -297.5t-292 -116.5q-134 0 -222 90t-88 230z M276 1026q0 -94 52 -147.5t139 -53.5q111 0 187.5 79.5t76.5 203.5q0 94 -51.5 147.5t-138.5 53.5q-111 0 -188 -79.5t-77 -203.5zM881 319q0 181 115 297.5t292 116.5q134 0 221.5 -89.5t87.5 -229.5q0 -181 -115 -297.5t-292 -116.5q-134 0 -221.5 89.5t-87.5 229.5z M1012 326q0 -94 51.5 -147.5t138.5 -53.5q111 0 187.5 79.5t76.5 203.5q0 94 -51.5 147t-138.5 53q-111 0 -187.5 -79t-76.5 -203z" />
<glyph unicode="&#x26;" horiz-adv-x="1376" d="M59 340q0 92 28.5 169.5t82.5 137t121.5 105t154.5 84.5q-65 113 -65 235q0 165 110 274t289 109q134 0 219.5 -76t85.5 -196q0 -227 -272 -346l-137 -62l196 -352q54 114 93 295q3 18 22 18h295q16 0 16 -20l-22 -123q-3 -21 -25 -21h-164q-53 -188 -126 -301l122 -237 q7 -14 7 -19q0 -14 -19 -14h-151q-14 0 -23 18l-61 113q-173 -151 -400 -151q-154 0 -265.5 100t-111.5 260zM240 356q0 -94 61.5 -155.5t151.5 -61.5q167 0 307 133l-240 428q-280 -122 -280 -344zM549 1100q0 -86 39 -168l16 -29l152 64q162 70 162 188q0 68 -43 108 t-119 40q-83 0 -145 -54.5t-62 -148.5z" />
<glyph unicode="'" horiz-adv-x="393" d="M150 983l83 430q3 21 25 21h123q16 0 16 -21l-84 -430q-3 -20 -24 -20h-123q-16 0 -16 20z" />
<glyph unicode="(" horiz-adv-x="792" d="M86 94q0 94 23 219l79 408q26 132 62.5 226t101.5 178.5t144.5 154t212.5 166.5q9 6 14 6q7 0 12 -8l72 -98q4 -6 4 -13q0 -9 -10 -16q-80 -58 -132 -100t-101 -90t-79 -91.5t-57.5 -102t-46 -123.5t-35.5 -153l-55 -280q-33 -180 -33 -273q0 -59 10.5 -104.5t39 -92.5 t62 -87t95.5 -105q6 -6 6 -12q0 -8 -8 -16l-84 -97q-7 -10 -16 -10q-7 0 -15 8q-136 132 -201 249t-65 257z" />
<glyph unicode=")" horiz-adv-x="792" d="M-86 -301q0 9 10 16q80 58 132 100t101 90t79 91.5t57.5 102t46 123.5t35.5 153l55 280q33 180 33 273q0 59 -10.5 104.5t-39 92.5t-62 87t-95.5 105q-6 6 -6 12q0 9 8 17l84 96q8 10 16 10q7 0 15 -8q136 -132 201 -249t65 -257q0 -94 -23 -219l-79 -408 q-26 -132 -62.5 -226t-101.5 -178.5t-144.5 -154t-212.5 -166.5q-9 -6 -14 -6q-7 0 -12 8l-72 99q-4 6 -4 12z" />
<glyph unicode="*" horiz-adv-x="919" d="M170 1116q0 4 4 14l41 99q6 14 16 14q7 0 13 -2l215 -74l55 246q6 21 25 21h102q16 0 16 -21l-47 -250l238 72q6 2 12 2q7 0 12 -16l29 -99q2 -8 2 -12q0 -11 -14 -16l-271 -80l109 -193q2 -6 2 -10q0 -12 -14 -20l-86 -58q-8 -4 -13 -4q-9 0 -16 12l-113 191l-163 -195 q-10 -10 -17 -10q-6 0 -14 6l-84 70q-6 6 -6 12q0 8 8 16l176 201l-205 72q-12 5 -12 12z" />
<glyph unicode="+" horiz-adv-x="1202" d="M133 641l23 119q3 20 24 20h352l70 353q3 20 23 20h127q18 0 18 -20l-70 -353h353q16 0 16 -20l-22 -119q-3 -20 -25 -20h-352l-70 -353q-3 -20 -22 -20h-127q-19 0 -19 20l70 353h-352q-17 0 -17 20z" />
<glyph unicode="," horiz-adv-x="559" d="M14 -164l6 33q5 20 25 20q61 0 82 15.5t31 70.5l4 25h-94q-17 0 -17 20l31 156q3 21 24 21h160q17 0 17 -21l-43 -215q-17 -81 -54.5 -113t-111.5 -32h-43q-17 0 -17 20z" />
<glyph unicode="-" horiz-adv-x="1075" d="M133 641l23 119q3 20 24 20h746q16 0 16 -20l-22 -119q-3 -20 -25 -20h-745q-17 0 -17 20z" />
<glyph unicode="." horiz-adv-x="559" d="M51 20l31 156q3 21 24 21h160q17 0 17 -21l-31 -156q-3 -20 -25 -20h-159q-17 0 -17 20z" />
<glyph unicode="/" horiz-adv-x="1032" d="M-119 8q0 6 4 12l983 1393q15 21 33 21h150q12 0 12 -9q0 -6 -4 -12l-983 -1393q-14 -20 -33 -20h-149q-13 0 -13 8z" />
<glyph unicode="0" horiz-adv-x="1288" d="M76 547q0 131 26 258.5t82 245.5t135 207t194.5 142.5t252.5 53.5q194 0 317 -147t123 -420q0 -131 -26 -258.5t-82 -245.5t-135 -207t-194.5 -142.5t-252.5 -53.5q-194 0 -317 147t-123 420zM252 547q0 -408 283 -408q99 0 182.5 44.5t140 118t96.5 171t58 202t18 212.5 q0 407 -282 407q-99 0 -182.5 -44t-140.5 -118t-96.5 -171t-58 -201.5t-18.5 -212.5z" />
<glyph unicode="1" horiz-adv-x="798" d="M125 1069l27 141q6 20 28 31l369 182q18 11 33 11h82q16 0 16 -21l-272 -1393q-3 -20 -25 -20h-135q-17 0 -17 20l232 1182l-303 -145q-14 -6 -25 -6q-10 0 -10 18z" />
<glyph unicode="2" horiz-adv-x="1236" d="M18 20l19 86q6 31 29 48l671 561q75 64 115 109t65 105t25 134q0 106 -62.5 168.5t-177.5 62.5q-130 0 -214 -78t-107 -198q-5 -31 -33 -31h-117q-20 0 -20 17q0 4 2 14q37 201 164 318.5t348 117.5q175 0 284 -106.5t109 -266.5q0 -141 -69.5 -254.5t-204.5 -224.5 l-533 -442h652q16 0 16 -21l-25 -119q-3 -20 -24 -20h-895q-17 0 -17 20z" />
<glyph unicode="3" horiz-adv-x="1222" d="M63 367q0 10 5 55q6 35 32 35h111q22 0 22 -27q0 -5 -1 -20.5t-1 -26.5q0 -111 70 -177.5t205 -66.5q163 0 254.5 82t91.5 236q0 110 -66 168.5t-194 58.5h-117q-20 0 -20 23l20 114q5 23 29 23h104q83 0 151 24t114.5 81.5t46.5 142.5q0 95 -57 148.5t-167 53.5 t-193.5 -63.5t-115.5 -169.5q-4 -16 -10.5 -20.5t-20.5 -4.5h-118q-27 0 -21 35q45 175 175.5 279t320.5 104q170 0 272 -90.5t102 -233.5q0 -131 -63 -221t-178 -135q80 -34 131 -109.5t51 -191.5q0 -243 -145.5 -368t-395.5 -125q-182 0 -303 111.5t-121 275.5z" />
<glyph unicode="4" horiz-adv-x="1204" d="M8 315l15 76q5 25 24 47l836 979q14 17 30 17h107q16 0 16 -21l-186 -958h197q16 0 16 -21l-25 -119q-3 -20 -24 -20h-197l-53 -275q-3 -20 -27 -20h-133q-16 0 -16 20l53 275h-618q-15 0 -15 20zM268 455h406l121 630z" />
<glyph unicode="5" horiz-adv-x="1265" d="M106 346q0 17 5 53q5 31 30 31h113q12 0 16 -6t4 -25q0 -120 69 -190t192 -70q166 0 271 107t105 278q0 267 -258 267q-147 0 -309 -125q-23 -19 -39 -19h-127q-16 0 -16 21l229 745q6 21 25 21h762q16 0 16 -21l-25 -119q-3 -20 -24 -20h-625l-139 -424q159 100 330 100 q180 0 280.5 -103.5t100.5 -295.5q0 -256 -156.5 -413.5t-423.5 -157.5q-173 0 -289.5 103.5t-116.5 262.5z" />
<glyph unicode="6" horiz-adv-x="1269" d="M117 457q0 127 18 248t53.5 233.5t92 205.5t130 162.5t172 108.5t212.5 39q173 0 280 -99.5t107 -256.5q-5 -21 -27 -21h-123q-18 0 -18 21q-8 104 -74.5 154.5t-163.5 50.5q-154 0 -267 -128.5t-165 -394.5q149 146 369 146q168 0 276.5 -112.5t108.5 -305.5 q0 -238 -154.5 -383t-411.5 -145q-183 0 -299 127.5t-116 349.5zM293 412q0 -125 70 -199t192 -74q158 0 262.5 99.5t104.5 261.5q0 120 -67.5 193t-190.5 73q-159 0 -265 -97.5t-106 -256.5z" />
<glyph unicode="7" horiz-adv-x="1032" d="M160 14q0 5 6 17l704 1243h-692q-16 0 -16 20l24 119q3 21 25 21h870q17 0 17 -21l-17 -78q-5 -22 -20 -51l-723 -1270q-8 -14 -27 -14h-135q-16 0 -16 14z" />
<glyph unicode="8" horiz-adv-x="1232" d="M78 350q0 142 77 248t216 164q-52 40 -86.5 108.5t-34.5 143.5q0 200 140.5 320t354.5 120q169 0 273 -91t104 -243q0 -243 -239 -358q157 -112 157 -293q0 -120 -43.5 -215t-119.5 -154t-174.5 -89.5t-213.5 -30.5q-184 0 -297.5 101.5t-113.5 268.5zM254 373 q0 -107 68.5 -170.5t183.5 -63.5q148 0 253 81.5t105 228.5q0 101 -69 164t-189 63q-95 0 -173 -32t-128.5 -102.5t-50.5 -168.5zM418 1030q0 -87 58 -143t163 -56q79 0 149 28.5t118 91t48 147.5q0 97 -59.5 146.5t-163.5 49.5q-58 0 -112.5 -16.5t-100 -47.5t-73 -83 t-27.5 -117z" />
<glyph unicode="9" horiz-adv-x="1269" d="M94 336q4 20 27 20h123q18 0 18 -20q8 -104 74.5 -154.5t163.5 -50.5q154 0 267 128.5t165 393.5q-148 -145 -369 -145q-168 0 -276.5 112.5t-108.5 305.5q0 239 154 383.5t411 144.5q183 0 299.5 -127.5t116.5 -349.5q0 -127 -18 -248t-53.5 -233.5t-92 -205.5 t-130 -162.5t-172 -108.5t-212.5 -39q-173 0 -280 99.5t-107 256.5zM354 934q0 -120 67.5 -193t190.5 -73q159 0 265 97.5t106 256.5q0 125 -70 198.5t-192 73.5q-158 0 -262.5 -99.5t-104.5 -260.5z" />
<glyph unicode=":" horiz-adv-x="559" d="M51 20l31 156q3 21 24 21h160q17 0 17 -21l-31 -156q-6 -20 -25 -20h-159q-17 0 -17 20zM215 852l31 156q3 20 24 20h160q16 0 16 -20l-30 -156q-3 -21 -25 -21h-160q-16 0 -16 21z" />
<glyph unicode=";" horiz-adv-x="559" d="M14 -164l6 33q5 20 25 20q61 0 82 15.5t31 70.5l4 25h-94q-17 0 -17 20l31 156q3 21 24 21h160q17 0 17 -21l-43 -215q-17 -81 -54.5 -113t-111.5 -32h-43q-17 0 -17 20zM215 852l31 156q3 20 24 20h160q16 0 16 -20l-30 -156q-3 -21 -25 -21h-160q-16 0 -16 21z" />
<glyph unicode="&#x3c;" horiz-adv-x="1052" d="M113 535l30 151q2 17 25 27l817 399q4 2 10 2q9 0 9 -14l-29 -150q-2 -16 -27 -28l-669 -322l544 -321q15 -10 15 -29l-25 -129q-3 -15 -12 -15q-5 0 -15 5l-657 397q-16 9 -16 27z" />
<glyph unicode="=" horiz-adv-x="1267" d="M119 348l22 119q3 20 25 20h864q17 0 17 -20l-23 -119q-3 -20 -25 -20h-864q-16 0 -16 20zM201 764l22 119q3 20 25 20h864q16 0 16 -20l-22 -119q-6 -21 -25 -21h-864q-16 0 -16 21z" />
<glyph unicode="&#x3e;" horiz-adv-x="1052" d="M51 121l29 149q2 17 26 29l670 322l-545 321q-14 9 -14 29l25 129q3 14 12 14q6 0 14 -4l658 -397q16 -9 16 -27l-31 -151q-3 -18 -24 -27l-817 -399q-6 -3 -11 -3q-8 0 -8 15z" />
<glyph unicode="?" horiz-adv-x="1120" d="M176 1049q45 177 180 291t338 114q164 0 268.5 -90.5t104.5 -247.5q0 -67 -23 -124.5t-60.5 -99t-83.5 -79t-94.5 -72t-90 -70t-72.5 -81.5t-41 -98l-14 -76q-3 -21 -25 -21h-139q-16 0 -16 21l12 61q15 77 49.5 140t76.5 105.5t89.5 79t92 68t80.5 64t57.5 76t21.5 96.5 q0 86 -57 135t-158 49q-110 0 -195 -61.5t-125 -179.5q-6 -21 -24 -21h-135q-17 0 -17 21zM313 20l33 164q3 21 25 21h172q16 0 16 -21l-33 -164q-3 -20 -24 -20h-172q-17 0 -17 20z" />
<glyph unicode="@" horiz-adv-x="1654" d="M78 512q0 174 58 323.5t166 261.5t272.5 176t367.5 64q180 0 324.5 -74.5t225.5 -206t81 -294.5q0 -160 -44 -291t-134.5 -212t-212.5 -81q-68 0 -117.5 34.5t-67.5 90.5q-134 -125 -292 -125q-129 0 -212 91t-83 233q0 208 131.5 347.5t328.5 139.5q162 0 230 -119 l28 88q6 17 21 17h94q12 0 12 -17l-129 -430q-22 -71 -22 -129q0 -48 23.5 -77t72.5 -29q73 0 128 68t80.5 166.5t25.5 207.5q0 229 -131.5 352t-382.5 123q-211 0 -372 -94.5t-244 -250t-83 -345.5q0 -136 43.5 -248t118 -184t172 -111.5t207.5 -39.5q130 0 224.5 23 t184.5 69q4 2 11 2q8 0 12 -11l41 -90q2 -4 2 -8q0 -7 -14 -16q-196 -96 -467 -96q-133 0 -255 49t-216 137t-150.5 222.5t-56.5 293.5zM551 508q0 -104 47.5 -159.5t124.5 -55.5q62 0 114.5 25.5t88 66t60.5 91t36.5 100t11.5 94.5q0 204 -164 204q-78 0 -140 -31.5 t-100.5 -84t-58.5 -117t-20 -133.5z" />
<glyph unicode="A" d="M-133 16q0 10 6 19l774 1378q12 21 29 21h176q17 0 20 -21l240 -1388q0 -25 -25 -25h-135q-11 0 -14.5 4t-5.5 16l-64 396h-585l-220 -396q-12 -20 -28 -20h-150q-18 0 -18 16zM373 580h467l-107 647z" />
<glyph unicode="B" horiz-adv-x="1310" d="M57 20l273 1393q3 21 24 21h502q165 0 265 -78t100 -230q0 -126 -65.5 -218t-176.5 -146q174 -89 174 -275q0 -135 -66 -246t-185 -176t-267 -65h-561q-17 0 -17 20zM268 170h373q145 0 238.5 80t93.5 211q0 211 -236 211h-372zM397 836h365q117 0 195.5 64.5t78.5 180.5 q0 89 -50.5 136t-141.5 47h-365z" />
<glyph unicode="C" horiz-adv-x="1413" d="M78 573q0 182 54.5 341.5t154 280t251.5 190t336 69.5q231 0 376 -134t145 -341v-23q0 -20 -27 -20h-127q-17 0 -20 20q-14 164 -102.5 249t-270.5 85q-105 0 -198 -37.5t-163 -103t-121.5 -152.5t-77.5 -188.5t-26 -208.5q0 -219 105 -338t272 -119q182 0 290 78.5 t193 255.5q9 21 29 21h135q19 0 19 -21q-81 -242 -258 -369.5t-424 -127.5q-114 0 -214 42t-173 117.5t-115.5 187.5t-42.5 246z" />
<glyph unicode="D" horiz-adv-x="1376" d="M57 20l273 1393q3 21 24 21h394q116 0 214.5 -35t173.5 -102.5t117.5 -174t42.5 -241.5q0 -182 -58 -343t-162 -280t-258.5 -188.5t-338.5 -69.5h-405q-17 0 -17 20zM266 164h221q139 0 257.5 55t198.5 148.5t124.5 219.5t44.5 267q0 204 -110.5 310t-299.5 106h-221z " />
<glyph unicode="E" horiz-adv-x="1165" d="M57 20l273 1393q3 21 24 21h813q17 0 17 -21l-25 -123q-3 -20 -24 -20h-654l-84 -434h592q17 0 17 -21l-25 -123q-3 -20 -25 -20h-591l-99 -508h684q17 0 17 -21l-25 -123q-3 -20 -24 -20h-844q-17 0 -17 20z" />
<glyph unicode="F" horiz-adv-x="1161" d="M57 20l273 1393q3 21 24 21h842q16 0 16 -21l-24 -123q-3 -20 -25 -20h-682l-90 -465h617q16 0 16 -21l-25 -122q-3 -21 -24 -21h-617l-120 -621q-3 -20 -25 -20h-139q-17 0 -17 20z" />
<glyph unicode="G" horiz-adv-x="1474" d="M78 586q0 136 35.5 264.5t105 237.5t165 191t224 128.5t273.5 46.5q222 0 365 -117t143 -313q-5 -20 -27 -20h-135q-21 0 -21 20q-7 136 -99.5 201t-252.5 65q-130 0 -242.5 -58.5t-188 -156.5t-118.5 -225t-43 -264q0 -205 103.5 -324t291.5 -119q280 0 443 211l43 211 h-404q-16 0 -16 21l25 123q3 20 24 20h559q17 0 17 -20l-70 -357q-8 -41 -37 -78q-112 -144 -267.5 -219t-338.5 -75q-118 0 -218 37.5t-176.5 110.5t-119.5 190.5t-43 267.5z" />
<glyph unicode="H" horiz-adv-x="1435" d="M57 20l273 1393q3 21 24 21h140q16 0 16 -21l-115 -584h688l115 584q3 21 25 21h139q16 0 16 -21l-272 -1393q-3 -20 -25 -20h-139q-16 0 -16 20l127 646h-688l-127 -646q-3 -20 -25 -20h-139q-17 0 -17 20z" />
<glyph unicode="I" horiz-adv-x="567" d="M57 20l273 1393q3 21 24 21h140q16 0 16 -21l-272 -1393q-3 -20 -25 -20h-139q-17 0 -17 20z" />
<glyph unicode="J" horiz-adv-x="1161" d="M-12 342q0 50 8 94q3 21 24 21h134q16 0 16 -21q-8 -58 -8 -74q0 -100 59.5 -159.5t173.5 -59.5q150 0 233.5 84.5t121.5 276.5l178 909q3 21 24 21h140q16 0 16 -21l-178 -907q-30 -153 -80 -257t-121.5 -162.5t-154.5 -82.5t-195 -24q-179 0 -285 100.5t-106 261.5z " />
<glyph unicode="K" horiz-adv-x="1282" d="M57 20l273 1393q3 21 24 21h140q16 0 16 -21l-119 -604l684 604q21 21 37 21h176q7 0 12 -4t5 -9q0 -7 -11 -18l-551 -500l375 -874q2 -4 2 -9q0 -9 -6.5 -14.5t-15.5 -5.5h-152q-19 0 -31 31l-321 741l-254 -227l-102 -525q-3 -20 -25 -20h-139q-17 0 -17 20z" />
<glyph unicode="L" horiz-adv-x="1122" d="M57 20l273 1393q3 21 24 21h140q16 0 16 -21l-244 -1249h723q17 0 17 -21l-25 -123q-3 -20 -25 -20h-882q-17 0 -17 20z" />
<glyph unicode="M" horiz-adv-x="1677" d="M57 20l273 1393q3 21 24 21h195q23 0 29 -21l219 -911l561 911q12 21 37 21h209q16 0 16 -21l-272 -1393q-3 -20 -25 -20h-139q-17 0 -17 20l224 1145l-560 -907q-11 -18 -30 -18h-90q-19 0 -23 18l-227 907l-223 -1145q-3 -20 -25 -20h-139q-17 0 -17 20z" />
<glyph unicode="N" horiz-adv-x="1468" d="M57 20l273 1393q3 21 24 21h156q24 0 29 -17l469 -1147l223 1143q3 21 24 21h140q16 0 16 -21l-272 -1393q-3 -20 -25 -20h-156q-23 0 -28 16l-469 1147l-223 -1143q-3 -20 -25 -20h-139q-17 0 -17 20z" />
<glyph unicode="O" horiz-adv-x="1538" d="M78 582q0 134 34 261.5t101.5 238t160.5 194t220 131t272 47.5q272 0 432 -161.5t160 -440.5q0 -134 -34 -261.5t-101.5 -238t-160.5 -194t-220 -131t-272 -47.5q-272 0 -432 161.5t-160 440.5zM262 594q0 -212 112.5 -331.5t305.5 -119.5q134 0 247.5 58t188.5 155 t116.5 222.5t41.5 261.5q0 212 -112 331t-306 119q-134 0 -247.5 -58t-188.5 -154.5t-116.5 -222t-41.5 -261.5z" />
<glyph unicode="P" horiz-adv-x="1267" d="M57 20l273 1393q3 21 24 21h492q192 0 301.5 -86.5t109.5 -239.5q0 -226 -149 -349.5t-406 -123.5h-344l-120 -615q-3 -20 -25 -20h-139q-17 0 -17 20zM389 799h371q143 0 228 70.5t85 213.5q0 90 -58 138.5t-169 48.5h-365z" />
<glyph unicode="Q" horiz-adv-x="1538" d="M78 582q0 134 34 261.5t101.5 238t160.5 194t220 131t272 47.5q272 0 432 -161.5t160 -440.5q0 -184 -64.5 -353.5t-183.5 -293.5l82 -99q6 -9 6 -14q-4 -8 -12 -14l-110 -96q-12 -9 -17 -9q-6 0 -12 9l-86 102q-175 -104 -391 -104q-272 0 -432 161.5t-160 440.5z M262 594q0 -212 112.5 -331.5t305.5 -119.5q148 0 272 70l-127 154q-6 6 -6 14q0 4 10 14l111 97q11 8 16 8q8 0 13 -8l131 -156q84 96 129 228t45 276q0 212 -112 331t-306 119q-134 0 -247.5 -58t-188.5 -154.5t-116.5 -222t-41.5 -261.5z" />
<glyph unicode="R" horiz-adv-x="1300" d="M57 20l273 1393q3 21 24 21h514q173 0 272 -83.5t99 -228.5q0 -164 -92 -272.5t-258 -155.5l182 -671q2 -6 2 -13q0 -10 -16 -10h-150q-18 0 -24 20l-176 656h-340l-129 -656q-3 -20 -25 -20h-139q-17 0 -17 20zM397 840h365q130 0 213.5 64t83.5 190q0 176 -213 176 h-365z" />
<glyph unicode="S" horiz-adv-x="1206" d="M37 362q0 47 4 72q3 21 25 21h135q16 0 16 -21q-4 -32 -4 -45q0 -110 82 -178t231 -68q166 0 272.5 71t106.5 200q0 96 -81.5 151t-243.5 92q-402 92 -402 363q0 106 42.5 190t115.5 136.5t167.5 80t203.5 27.5q206 0 321 -101.5t115 -250.5q0 -29 -2 -47q-3 -21 -25 -21 h-135q-16 0 -16 21q2 14 2 30q0 95 -73 150t-204 55q-57 0 -112 -12t-106 -38t-82.5 -74t-31.5 -111q0 -97 74.5 -150t251.5 -102q93 -25 161 -54.5t125 -71t86 -99.5t29 -132q0 -231 -154.5 -348.5t-422.5 -117.5q-127 0 -234 46.5t-172 135t-65 200.5z" />
<glyph unicode="T" horiz-adv-x="1058" d="M113 1290l24 123q3 21 25 21h991q16 0 16 -21l-24 -123q-3 -20 -25 -20h-405l-244 -1250q-3 -20 -25 -20h-139q-16 0 -16 20l244 1250h-406q-16 0 -16 20z" />
<glyph unicode="U" horiz-adv-x="1349" d="M119 385q0 76 14 145l172 883q3 21 25 21h139q16 0 16 -21l-174 -895q-12 -67 -12 -127q0 -248 266 -248q163 0 264.5 97t137.5 278l174 895q3 21 24 21h140q16 0 16 -21l-180 -917q-54 -275 -203 -395.5t-406 -120.5q-186 0 -299.5 105.5t-113.5 299.5z" />
<glyph unicode="V" horiz-adv-x="1228" d="M121 1413q0 21 20 21h156q17 0 20 -21l183 -1208l641 1208q9 21 28 21h174q15 0 15 -11q0 -4 -2 -10l-764 -1393q-10 -20 -27 -20h-198q-10 0 -13.5 4.5t-5.5 15.5z" />
<glyph unicode="W" horiz-adv-x="1763" d="M174 1413q0 21 21 21h143q20 0 20 -21l41 -1177l478 1079q11 20 28 20h154q20 0 20 -20l74 -1079l489 1177q9 21 29 21h150q14 0 14 -11q0 -4 -2 -10l-594 -1393q-9 -20 -27 -20h-190q-10 0 -13 4t-5 16l-64 1045l-467 -1045q-9 -20 -27 -20h-186q-10 0 -13 4t-5 16z" />
<glyph unicode="X" horiz-adv-x="1198" d="M-113 10q0 6 4 10l627 752l-301 641q-2 4 -2 8q0 13 14 13h160q11 0 16 -4t11 -17l237 -512l424 512q18 21 33 21h170q14 0 14 -11q0 -4 -4 -10l-561 -670l336 -723q2 -4 2 -8q0 -12 -14 -12h-160q-15 0 -25 20l-268 590l-489 -590q-17 -20 -39 -20h-170q-15 0 -15 10z " />
<glyph unicode="Y" horiz-adv-x="1081" d="M119 1413q0 21 16 21h162q8 0 11.5 -3.5t6.5 -13.5l203 -688l477 688q10 17 27 17h170q12 0 12 -11q0 -4 -4 -10l-622 -885l-101 -508q-3 -20 -24 -20h-140q-16 0 -16 20l100 508z" />
<glyph unicode="Z" horiz-adv-x="1230" d="M-41 20l25 123q2 16 18 35l983 1092h-729q-16 0 -16 20l24 123q3 21 25 21h921q17 0 17 -21l-25 -123q-2 -16 -18 -35l-983 -1091h805q16 0 16 -21l-25 -123q-3 -20 -24 -20h-998q-16 0 -16 20z" />
<glyph unicode="[" horiz-adv-x="915" d="M39 -385l350 1798q3 21 25 21h514q16 0 16 -21l-24 -123q-3 -20 -25 -20h-354l-293 -1512h354q16 0 16 -20l-24 -123q-3 -21 -25 -21h-514q-16 0 -16 21z" />
<glyph unicode="\" horiz-adv-x="616" d="M0 1413q0 21 16 21h138q18 0 24 -21l438 -1393q0 -20 -18 -20h-137q-17 0 -23 20z" />
<glyph unicode="]" horiz-adv-x="915" d="M-109 -385l25 123q3 20 25 20h354l293 1512h-355q-16 0 -16 20l25 123q3 21 24 21h514q17 0 17 -21l-351 -1798q-3 -21 -24 -21h-514q-17 0 -17 21z" />
<glyph unicode="^" horiz-adv-x="1146" d="M66 770q0 4 4 10l512 633q18 21 28 21h168q16 0 25 -21l258 -633q2 -4 2 -6q0 -14 -16 -14h-136q-17 0 -26 20l-209 518l-408 -518q-14 -20 -35 -20h-153q-14 0 -14 10z" />
<glyph unicode="_" horiz-adv-x="950" d="M-100 -139l22 119q3 20 25 20h841q17 0 17 -20l-23 -119q-3 -21 -24 -21h-842q-16 0 -16 21z" />
<glyph unicode="`" horiz-adv-x="608" d="M195 1421q0 13 16 13h195q17 0 26 -21l90 -258q2 -6 2 -10q0 -10 -12 -10h-123q-21 0 -33 18l-159 260q-2 4 -2 8z" />
<glyph unicode="a" horiz-adv-x="1239" d="M57 436q0 117 37.5 225.5t107 195.5t180.5 139.5t247 52.5q200 0 307 -131l16 90q3 20 25 20h127q16 0 16 -20l-190 -988q-6 -20 -25 -20h-127q-16 0 -16 20l16 82q-74 -68 -144.5 -95t-180.5 -27q-181 0 -288.5 126.5t-107.5 329.5zM233 436q0 -143 67.5 -224t188.5 -81 q116 0 208 69t140 180t48 241q0 128 -71 202t-198 74q-88 0 -162 -39t-121.5 -104t-73.5 -147.5t-26 -170.5z" />
<glyph unicode="b" horiz-adv-x="1263" d="M61 20l273 1393q3 21 24 21h127q17 0 17 -21l-96 -493q76 68 155 98.5t180 30.5q168 0 280 -113.5t112 -312.5q0 -131 -39.5 -247.5t-112 -204.5t-182.5 -139.5t-242 -51.5q-97 0 -183 40t-124 97l-21 -97q-3 -20 -24 -20h-127q-17 0 -17 20zM299 424q0 -134 71.5 -213.5 t186.5 -79.5q75 0 139.5 26t111.5 71t81 105t50.5 129t16.5 142q0 138 -64.5 215.5t-189.5 77.5q-119 0 -213 -69t-142 -176t-48 -228z" />
<glyph unicode="c" horiz-adv-x="1148" d="M57 436q0 172 77.5 312t217 220.5t314.5 80.5q172 0 281 -100t112 -253q0 -22 -19 -22h-125q-21 0 -26 18q-27 205 -250 205q-176 0 -291 -133t-115 -326q0 -148 68.5 -227.5t204.5 -79.5q201 0 311 205q9 18 31 18h129q12 0 12 -12q0 -8 -6 -20q-74 -168 -195 -255 t-311 -87q-197 0 -308.5 128t-111.5 328z" />
<glyph unicode="d" horiz-adv-x="1247" d="M57 410q0 120 38.5 233t109 204t180.5 146.5t242 55.5q187 0 305 -136l98 500q3 21 25 21h127q16 0 16 -21l-272 -1393q-3 -20 -25 -20h-127q-16 0 -16 20l18 89q-129 -129 -323 -129q-179 0 -287.5 119t-108.5 311zM233 414q0 -127 64.5 -205t183.5 -78q122 0 215 68.5 t139 174t46 228.5q0 142 -72 218.5t-193 76.5q-92 0 -166.5 -41.5t-121 -110.5t-71 -154t-24.5 -177z" />
<glyph unicode="e" horiz-adv-x="1196" d="M57 442q0 120 45 230.5t124 194t193.5 133t246.5 49.5q192 0 301.5 -121.5t109.5 -309.5q0 -51 -10 -100l-6 -33q-6 -20 -25 -20h-798q-5 -35 -5 -53q0 -131 68.5 -206t200.5 -75q210 0 334 188q12 19 32 19h133q11 0 11 -10q0 -9 -8 -25q-87 -169 -217.5 -246 t-307.5 -77q-199 0 -310.5 130.5t-111.5 331.5zM266 616h643q0 134 -71 207.5t-201 73.5q-121 0 -219 -72t-152 -209z" />
<glyph unicode="f" horiz-adv-x="749" d="M70 897l20 111q3 20 25 20h168l26 131q30 147 119 221t225 74q97 0 197 -51q14 -8 14 -29l-20 -100q-4 -19 -19 -19q-4 0 -14 5q-89 43 -170 43q-68 0 -111 -41.5t-57 -116.5l-22 -117h315q16 0 16 -20l-20 -111q-6 -20 -25 -20h-315l-168 -857q-3 -20 -25 -20h-127 q-16 0 -16 20l168 857h-168q-16 0 -16 20z" />
<glyph unicode="g" horiz-adv-x="1247" d="M33 -92q6 20 24 20h127q17 0 17 -20q0 -94 52 -138t181 -44q141 0 225.5 86t114.5 245l10 54q-75 -52 -151.5 -79.5t-175.5 -27.5q-167 0 -271 114t-104 328q0 93 24 181.5t72.5 164.5t115 133.5t157.5 90.5t194 33q105 0 181.5 -37t115.5 -97l19 93q3 20 24 20h127 q16 0 16 -20l-184 -947q-47 -246 -181 -366.5t-357 -120.5q-168 0 -270.5 82.5t-102.5 216.5v35zM258 446q0 -139 68 -214.5t190 -75.5q115 0 202.5 65.5t131 167.5t43.5 221q0 136 -67 211.5t-189 75.5q-173 0 -276 -130t-103 -321z" />
<glyph unicode="h" horiz-adv-x="1243" d="M61 20l273 1393q3 21 24 21h127q17 0 17 -21l-101 -522q175 158 375 158q142 0 221.5 -72t79.5 -197q0 -49 -6 -86l-135 -674q-3 -20 -25 -20h-127q-16 0 -16 20l121 633q8 47 8 82q0 75 -49.5 118.5t-140.5 43.5q-121 0 -233 -103.5t-144 -265.5l-101 -508 q-3 -20 -24 -20h-127q-17 0 -17 20z" />
<glyph unicode="i" horiz-adv-x="548" d="M61 20l193 988q3 20 25 20h127q16 0 16 -20l-193 -988q-3 -20 -24 -20h-127q-17 0 -17 20zM270 1237l35 176q3 21 25 21h184q16 0 16 -21l-34 -176q-3 -20 -25 -20h-184q-17 0 -17 20z" />
<glyph unicode="j" horiz-adv-x="548" d="M-72 -371q0 5 4 13q45 79 70 138.5t41 139.5l211 1088q3 20 25 20h127q16 0 16 -20l-207 -1063q-24 -123 -54.5 -201t-76.5 -154q-10 -16 -18 -16q-3 0 -15 4l-110 39q-13 5 -13 12zM270 1237l35 176q3 21 25 21h184q16 0 16 -21l-34 -176q-3 -20 -25 -20h-184 q-17 0 -17 20z" />
<glyph unicode="k" horiz-adv-x="1116" d="M61 20l273 1393q3 21 24 21h127q17 0 17 -21l-158 -809l516 406q22 18 37 18h180q15 0 15 -12q0 -9 -13 -19l-430 -342l273 -624q2 -6 2 -15q0 -16 -23 -16h-137q-21 0 -29 18l-225 529l-211 -168l-70 -359q-3 -20 -24 -20h-127q-17 0 -17 20z" />
<glyph unicode="l" horiz-adv-x="550" d="M61 20l273 1393q3 21 24 21h127q17 0 17 -21l-273 -1393q-3 -20 -24 -20h-127q-17 0 -17 20z" />
<glyph unicode="m" horiz-adv-x="1677" d="M61 20l191 988q3 20 24 20h127q17 0 17 -20l-17 -103q49 64 127.5 104t165.5 40q104 0 161.5 -39.5t82.5 -122.5q59 75 140.5 118.5t174.5 43.5q121 0 188.5 -58.5t67.5 -167.5q0 -28 -10 -90l-137 -713q-6 -20 -25 -20h-127q-16 0 -16 20l133 685q6 27 6 53 q0 139 -149 139q-97 0 -177.5 -99t-111.5 -257l-100 -521q-6 -20 -25 -20h-127q-16 0 -16 20l133 685q6 35 6 59q0 133 -141 133q-99 0 -182 -97t-115 -259l-101 -521q-6 -20 -24 -20h-127q-17 0 -17 20z" />
<glyph unicode="n" horiz-adv-x="1218" d="M61 20l191 988q6 20 24 20h127q17 0 17 -20l-23 -117q80 78 162 118t189 40q146 0 225.5 -70t79.5 -199q0 -24 -13 -104l-127 -656q-3 -20 -24 -20h-127q-17 0 -17 20l123 631q9 52 9 78q0 168 -187 168q-57 0 -113.5 -24t-106 -69t-87.5 -117.5t-55 -162.5l-99 -504 q-6 -20 -24 -20h-127q-17 0 -17 20z" />
<glyph unicode="o" horiz-adv-x="1245" d="M57 403q0 132 45.5 250.5t125.5 205.5t196 138.5t250 51.5q199 0 319.5 -117t120.5 -307q0 -176 -77 -323t-219 -234.5t-320 -87.5q-199 0 -320 116.5t-121 306.5zM233 418q0 -133 76.5 -210t206.5 -77q120 0 217.5 65.5t151 175t53.5 238.5q0 133 -76.5 210t-206.5 77 q-120 0 -217.5 -65.5t-151 -175t-53.5 -238.5z" />
<glyph unicode="p" d="M-16 -385l272 1393q3 20 25 20h127q16 0 16 -20l-18 -88q129 129 323 129q179 0 287 -119.5t108 -311.5q0 -95 -23.5 -187t-72 -173.5t-115 -143.5t-159.5 -98t-199 -36q-188 0 -305 135l-98 -500q-3 -21 -25 -21h-127q-16 0 -16 21zM301 426q0 -142 71.5 -218.5 t192.5 -76.5q92 0 166.5 41.5t121 110.5t71 154t24.5 177q0 127 -64.5 205t-183.5 78q-92 0 -169 -39.5t-126.5 -106t-76.5 -150.5t-27 -175z" />
<glyph unicode="q" horiz-adv-x="1247" d="M57 406q0 131 39.5 247.5t112 204.5t182.5 139.5t242 51.5q97 0 183 -40t124 -98l21 97q3 20 24 20h127q16 0 16 -20l-272 -1393q-3 -21 -25 -21h-126q-17 0 -17 21l96 494q-76 -68 -155 -98.5t-180 -30.5q-168 0 -280 113.5t-112 312.5zM238 424q0 -139 62.5 -216 t186.5 -77q90 0 167 40.5t128.5 107t80 151t28.5 174.5q0 134 -71.5 213.5t-186.5 79.5q-75 0 -139.5 -26t-110.5 -71t-79.5 -105t-49.5 -129t-16 -142z" />
<glyph unicode="r" horiz-adv-x="905" d="M63 20l191 988q6 20 25 20h127q16 0 16 -20l-19 -103q60 65 146.5 104.5t179.5 39.5q84 0 160 -31q24 -10 24 -25q0 -4 -2 -14l-24 -123q-4 -22 -25 -22q-11 0 -24 8q-91 55 -179 55q-110 0 -201.5 -92.5t-117.5 -226.5l-109 -558q-6 -20 -24 -20h-127q-17 0 -17 20z" />
<glyph unicode="s" horiz-adv-x="1036" d="M35 285v28q0 21 20 21h131q17 0 17 -21q0 -90 54 -136t171 -46q44 0 87 8t86 26t69 53t26 83q0 62 -63 100.5t-201 61.5q-143 25 -223 93t-80 167q0 84 35 148t96 102t137 57t164 19q169 0 265 -82.5t96 -212.5q0 -21 -25 -21h-115q-13 0 -16 21q-6 74 -69 108.5 t-156 34.5q-46 0 -86.5 -7.5t-77.5 -24.5t-58.5 -48t-21.5 -74q0 -64 56.5 -95.5t199.5 -59.5q70 -13 123.5 -32t100 -48.5t71 -74t24.5 -103.5q0 -72 -24.5 -130.5t-67.5 -99t-102 -68t-127 -40t-145 -12.5q-167 0 -269 85t-102 220z" />
<glyph unicode="t" horiz-adv-x="845" d="M63 897l21 111q6 20 25 20h174l57 295q3 20 25 20h127q10 0 13 -4.5t3 -15.5l-57 -295h340q16 0 16 -20l-21 -111q-6 -20 -24 -20h-340l-111 -570q-6 -30 -6 -59q0 -117 133 -117q100 0 201 35q6 2 14 2q13 0 13 -18l-21 -101q-6 -29 -22 -35q-93 -34 -236 -34 q-126 0 -192 57.5t-66 165.5q0 36 16 119l109 555h-174q-17 0 -17 20z" />
<glyph unicode="u" horiz-adv-x="1206" d="M96 248q0 24 13 104l127 656q3 20 24 20h127q10 0 13 -4.5t3 -15.5l-122 -631q-9 -53 -9 -78q0 -168 187 -168q57 0 113.5 24t106 69t87.5 117.5t55 162.5l99 504q6 20 24 20h127q10 0 13 -4.5t3 -15.5l-190 -988q-6 -20 -25 -20h-127q-16 0 -16 20l23 117 q-80 -78 -161.5 -117.5t-189.5 -39.5q-146 0 -225.5 69.5t-79.5 198.5z" />
<glyph unicode="v" horiz-adv-x="960" d="M41 995q0 33 22 33h130q21 0 24 -20l137 -805l445 805q11 20 32 20h138q16 0 16 -14q0 -10 -6 -19l-553 -975q-14 -20 -29 -20h-149q-18 0 -21 20z" />
<glyph unicode="w" horiz-adv-x="1560" d="M98 997q0 31 21 31h129q14 0 18 -4t6 -16l80 -791l359 741q5 12 10 16.5t16 4.5h156q15 0 18 -21l86 -741l367 791q9 20 33 20h141q14 0 14 -12q0 -7 -6 -19l-479 -977q-10 -20 -31 -20h-149q-20 0 -23 20l-86 748l-354 -748q-11 -20 -31 -20h-147q-20 0 -23 20z" />
<glyph unicode="x" horiz-adv-x="1024" d="M-82 10q0 9 8 17l465 530l-235 444q-2 6 -2 13q0 14 16 14h141q20 0 27 -14l174 -344l311 344q12 14 31 14h152q12 0 12 -12q0 -7 -6 -15l-424 -466l270 -508q4 -8 4 -17q0 -10 -14 -10h-146q-15 0 -24 20l-205 392l-348 -392q-17 -20 -33 -20h-164q-10 0 -10 10z" />
<glyph unicode="y" horiz-adv-x="1075" d="M-127 -373l2 13l21 110q6 21 20 21q9 0 24.5 -11.5t44 -22.5t68.5 -11q149 0 271 256l-218 1013q-2 10 -2 17q0 16 19 16h147q20 0 23 -20l151 -791l414 791q9 20 31 20h147q13 0 13 -14q0 -5 -5 -15l-589 -1099q-53 -99 -105 -164.5t-105 -100t-102.5 -48t-111.5 -13.5 q-83 0 -142 33q-16 9 -16 20z" />
<glyph unicode="z" horiz-adv-x="999" d="M-33 20l21 111q2 17 16 31l715 715h-541q-16 0 -16 20l20 111q6 20 25 20h723q16 0 16 -20l-20 -111q-3 -19 -25 -43l-702 -702h600q16 0 16 -21l-20 -111q-3 -20 -25 -20h-786q-17 0 -17 20z" />
<glyph unicode="{" horiz-adv-x="815" d="M33 453l22 122q3 21 25 21h53q131 0 156 135l59 303q44 225 131 312.5t264 87.5h84q17 0 17 -21l-25 -123q-3 -20 -24 -20h-80q-73 0 -115 -52.5t-63 -160.5l-70 -359q-15 -78 -52.5 -119t-111.5 -65q96 -34 96 -143q0 -14 -4 -41l-69 -359q-15 -77 -15 -104 q0 -58 26.5 -83.5t84.5 -25.5h80q16 0 16 -20l-24 -123q-3 -21 -25 -21h-84q-117 0 -185.5 70t-68.5 201q0 47 14 129l60 303q4 28 4 41q0 94 -107 94h-53q-16 0 -16 21z" />
<glyph unicode="|" horiz-adv-x="585" d="M39 -184l309 1597q3 21 25 21h139q16 0 16 -21l-309 -1597q-6 -21 -24 -21h-140q-16 0 -16 21z" />
<glyph unicode="}" horiz-adv-x="815" d="M-74 -385l25 123q3 20 24 20h80q73 0 115 52.5t63 160.5l70 359q15 78 52.5 119t111.5 65q-96 34 -96 143q0 14 4 41l69 359q15 77 15 104q0 58 -26.5 83.5t-84.5 25.5h-80q-16 0 -16 20l24 123q3 21 25 21h84q117 0 185.5 -70t68.5 -201q0 -47 -14 -129l-60 -303 q-4 -28 -4 -41q0 -94 107 -94h53q16 0 16 -21l-22 -122q-3 -21 -25 -21h-53q-131 0 -156 -135l-59 -303q-44 -225 -131 -312.5t-264 -87.5h-84q-17 0 -17 21z" />
<glyph unicode="~" horiz-adv-x="1056" d="M59 717q0 14 21 26q55 32 129.5 54t124.5 22q74 0 138 -21t122.5 -42t118.5 -21q79 0 168 51q10 5 14 5q5 0 8 -3t8 -14l45 -94q5 -12 5 -14q0 -15 -21 -27q-55 -32 -129.5 -54t-124.5 -22q-74 0 -138 21t-122.5 42t-118.5 21q-79 0 -168 -51q-8 -4 -14 -4q-8 0 -16 16 l-46 94q-4 10 -4 15z" />
<glyph unicode="&#xa1;" horiz-adv-x="718" d="M68 -385l194 997q3 21 25 21h139q16 0 16 -21l-194 -997q-3 -21 -25 -21h-139q-16 0 -16 21zM291 844l33 164q3 20 24 20h172q17 0 17 -20l-33 -164q-3 -21 -25 -21h-172q-16 0 -16 21z" />
<glyph unicode="&#xa2;" horiz-adv-x="1169" d="M104 639q0 237 142 404.5t370 199.5l33 170q3 21 25 21h131q16 0 16 -21l-33 -168q133 -22 224 -118.5t94 -227.5q0 -22 -19 -22h-124q-23 0 -27 18q-24 169 -178 199l-148 -756q161 23 254 201q9 18 31 18h129q12 0 12 -12q0 -9 -6 -21q-139 -314 -450 -340l-31 -164 q-3 -20 -25 -20h-131q-16 0 -16 20l33 175q-146 36 -226 156t-80 288zM281 641q0 -234 159 -291l146 735q-137 -35 -221 -158t-84 -286z" />
<glyph unicode="&#xa3;" horiz-adv-x="1214" d="M18 20l29 144q3 19 25 41q207 214 207 409v23h-166q-17 0 -17 20l23 119q3 21 24 21h121q-18 76 -18 157q0 220 144 360t368 140q96 0 170 -27t119 -74t67.5 -106t22.5 -127q0 -46 -4 -71q-3 -21 -25 -21h-135q-17 0 -17 21q5 35 5 43q0 91 -54 144.5t-164 53.5 q-139 0 -228 -89.5t-89 -231.5q0 -93 14 -172h418q16 0 16 -21l-22 -119q-3 -20 -25 -20h-372q-4 -145 -58 -249.5t-170 -223.5h752q16 0 16 -21l-24 -123q-3 -20 -25 -20h-911q-17 0 -17 20z" />
<glyph unicode="&#xa4;" horiz-adv-x="1161" d="M41 199q0 9 10 16l129 109q-37 70 -37 159q0 181 113 303l-76 93q-4 6 -4 12q0 9 10 16l84 70q8 8 15 8q6 0 14 -8l80 -96q107 55 233 55q122 0 217 -76l132 111q8 8 16 8q7 0 12 -8l66 -82q4 -6 4 -12q0 -9 -10 -17l-129 -108q36 -74 36 -158q0 -175 -106 -297l70 -84 q4 -6 4 -12q0 -9 -11 -17l-84 -69q-9 -9 -14 -9t-14 9l-70 86q-108 -60 -244 -60q-127 0 -217 74l-131 -109q-11 -8 -16 -8q-4 0 -12 8l-66 80q-4 6 -4 13zM297 502q0 -98 57.5 -159.5t145.5 -61.5q128 0 215.5 82.5t87.5 211.5q0 98 -57.5 160t-145.5 62q-129 0 -216 -83 t-87 -212z" />
<glyph unicode="&#xa5;" horiz-adv-x="1140" d="M72 252l24 119q3 20 25 20h309l27 137h-351q-16 0 -16 21l23 119q3 20 24 20h269l-228 725q0 21 17 21h163q8 0 12 -3.5t7 -13.5l205 -680l475 680q10 17 26 17h168q13 0 13 -11q0 -4 -4 -10l-510 -725h284q17 0 17 -20l-23 -119q-6 -21 -24 -21h-367l-27 -137h326 q16 0 16 -20l-24 -119q-3 -21 -25 -21h-325l-41 -211q-3 -20 -25 -20h-139q-17 0 -17 20l41 211h-309q-16 0 -16 21z" />
<glyph unicode="&#xa6;" horiz-adv-x="626" d="M39 -385l147 758q3 20 25 20h139q17 0 17 -20l-148 -758q-3 -21 -24 -21h-140q-16 0 -16 21zM242 655l147 758q3 21 25 21h139q16 0 16 -21l-147 -758q-3 -20 -25 -20h-139q-16 0 -16 20z" />
<glyph unicode="&#xa7;" horiz-adv-x="1044" d="M-25 -41q3 21 27 21h133q17 0 17 -21q0 -5 -1 -18t-1 -15q0 -88 56.5 -138t162.5 -50q107 0 186.5 63t79.5 170q0 54 -29.5 101t-72.5 81t-121 83q-156 99 -227.5 179.5t-71.5 168.5q0 151 137 256q-60 75 -60 202q0 188 134 300t335 112q167 0 268 -95t101 -233 q0 -30 -2 -57q-3 -20 -25 -20h-135q-16 0 -16 20q2 16 2 35q0 86 -58.5 136t-160.5 50q-107 0 -186.5 -63t-79.5 -170q0 -78 52.5 -134t170.5 -130q156 -98 227.5 -179.5t71.5 -169.5q0 -151 -137 -256q59 -73 59 -202q0 -100 -36.5 -179.5t-99.5 -129.5t-145.5 -76.5 t-177.5 -26.5q-172 0 -274.5 98t-102.5 238v49zM289 602q0 -52 60 -110.5t222 -157.5l64 -39q78 57 78 131q0 51 -60 108.5t-223 159.5l-63 39q-78 -57 -78 -131z" />
<glyph unicode="&#xa8;" horiz-adv-x="718" d="M182 1249l31 164q3 21 25 21h163q17 0 17 -21l-31 -164q-3 -20 -25 -20h-163q-17 0 -17 20zM522 1249l31 164q3 21 25 21h163q17 0 17 -21l-31 -164q-3 -20 -25 -20h-163q-17 0 -17 20z" />
<glyph unicode="&#xa9;" horiz-adv-x="1638" d="M106 717q0 138 40.5 258t110 206.5t161 149t194 93t207.5 30.5t207.5 -30.5t194 -93t161 -149t110 -206.5t40.5 -258t-40.5 -258t-110 -206.5t-161 -149t-194 -93t-207.5 -30.5t-207.5 30.5t-194 93t-161 149t-110 206.5t-40.5 258zM205 717q0 -126 35 -233.5t94 -183.5 t138 -129.5t167 -79t180 -25.5t180 25.5t167 79t138.5 129t94.5 183.5t35 234t-35 234t-94.5 183.5t-138.5 129t-167 79t-180 25.5t-180 -25.5t-167 -79t-138 -129.5t-94 -183.5t-35 -233.5zM389 717q0 115 37 208.5t98.5 150.5t137 87.5t157.5 30.5q157 0 268.5 -83 t137.5 -222q0 -21 -23 -21h-49q-23 0 -29 21q-24 99 -104 159t-201 60q-136 0 -234 -105t-98 -286t98 -286t234 -105q121 0 201 60t104 159q6 20 29 20h49q23 0 23 -20q-26 -139 -137.5 -222t-268.5 -83q-82 0 -157.5 30.5t-137 87.5t-98.5 150.5t-37 208.5z" />
<glyph unicode="&#xaa;" horiz-adv-x="954" d="M131 993q0 87 28 168t80 146t134.5 104t183.5 39q147 0 227 -98l13 67q3 15 18 15h94q13 0 13 -15l-142 -735q-3 -14 -18 -14h-94q-13 0 -13 14l13 61q-55 -50 -107.5 -70t-134.5 -20q-135 0 -215 93.5t-80 244.5zM258 993q0 -105 52 -165t143 -60q86 0 154.5 51 t104.5 133t36 178t-53 151.5t-148 55.5q-129 0 -209 -103t-80 -241z" />
<glyph unicode="&#xab;" horiz-adv-x="1169" d="M59 506l23 112q5 21 27 37l516 404q9 6 12 6q10 0 10 -14l-35 -185q-6 -20 -20 -32l-365 -285l254 -287q11 -11 11 -20q0 -1 -3 -13l-32 -157q-4 -15 -15 -15q-6 0 -12 6l-356 406q-15 15 -15 37zM496 506l22 112q5 21 27 37l516 404q9 6 12 6q10 0 10 -14l-34 -185 q-5 -19 -21 -32l-364 -285l254 -287q10 -10 10 -20q0 -5 -2 -13l-33 -157q-4 -15 -14 -15q-7 0 -13 6l-356 406q-14 14 -14 37z" />
<glyph unicode="&#xac;" horiz-adv-x="1116" d="M106 680l23 111q3 20 25 20h794q17 0 17 -20l-80 -410q-3 -21 -25 -21h-123q-16 0 -16 21l53 278h-651q-17 0 -17 21z" />
<glyph unicode="&#xad;" horiz-adv-x="1075" d="M133 641l23 119q3 20 24 20h746q16 0 16 -20l-22 -119q-3 -20 -25 -20h-745q-17 0 -17 20z" />
<glyph unicode="&#xae;" horiz-adv-x="1638" d="M106 717q0 138 40.5 258t110 206.5t161 149t194 93t207.5 30.5t207.5 -30.5t194 -93t161 -149t110 -206.5t40.5 -258t-40.5 -258t-110 -206.5t-161 -149t-194 -93t-207.5 -30.5t-207.5 30.5t-194 93t-161 149t-110 206.5t-40.5 258zM205 717q0 -126 35 -233.5t94 -183.5 t138 -129.5t167 -79t180 -25.5t180 25.5t167 79t138.5 129t94.5 183.5t35 234t-35 234t-94.5 183.5t-138.5 129t-167 79t-180 25.5t-180 -25.5t-167 -79t-138 -129.5t-94 -183.5t-35 -233.5zM537 272v893q0 23 22 23h279q145 0 221 -71t76 -189q0 -95 -51 -161t-138 -91 l201 -404q4 -8 4 -14q0 -8 -12 -8h-58q-23 0 -32 18l-201 396h-213v-392q0 -22 -23 -22h-53q-22 0 -22 22zM635 750h217q184 0 184 178q0 174 -184 174h-217v-352z" />
<glyph unicode="&#xaf;" horiz-adv-x="575" d="M174 1241l19 102q3 21 24 21h383q16 0 16 -21l-18 -102q-3 -20 -25 -20h-383q-16 0 -16 20z" />
<glyph unicode="&#xb0;" horiz-adv-x="876" d="M141 1063q0 164 119.5 277.5t302.5 113.5q134 0 221.5 -86t87.5 -219q0 -164 -119 -277.5t-302 -113.5q-134 0 -222 86t-88 219zM287 1075q0 -88 49.5 -139t128.5 -51q111 0 186.5 72t75.5 180q0 88 -49.5 139t-128.5 51q-113 0 -187.5 -71.5t-74.5 -180.5z" />
<glyph unicode="&#xb1;" horiz-adv-x="1212" d="M23 20l22 119q3 21 25 21h864q16 0 16 -21l-22 -119q-3 -20 -25 -20h-864q-16 0 -16 20zM143 668l23 118q3 21 24 21h353l69 352q3 21 23 21h127q18 0 18 -21l-69 -352h352q16 0 16 -21l-22 -118q-3 -21 -25 -21h-352l-70 -352q-3 -21 -22 -21h-127q-19 0 -19 21l70 352 h-352q-17 0 -17 21z" />
<glyph unicode="&#xb2;" horiz-adv-x="786" d="M115 688l10 62q3 18 18 28l371 273q56 42 82.5 79t26.5 93q0 51 -33 81.5t-88 30.5q-61 0 -102 -37t-60 -96q-6 -20 -25 -20h-84q-16 0 -16 20q23 107 100 175.5t201 68.5q105 0 167 -60t62 -149q0 -85 -42.5 -149.5t-120.5 -122.5l-260 -187h331q17 0 17 -20l-13 -70 q-3 -20 -24 -20h-502q-16 0 -16 20z" />
<glyph unicode="&#xb3;" horiz-adv-x="770" d="M125 860q0 11 2 27q3 20 25 20h73q17 0 17 -20q0 -59 36.5 -90t98.5 -31q68 0 109.5 35.5t41.5 103.5q0 49 -30.5 79t-87.5 30h-58q-16 0 -16 20l14 70q3 20 23 20h41q61 0 107 31.5t46 93.5q0 40 -26 67t-76 27q-49 0 -88 -25.5t-58 -78.5q-5 -16 -22 -16h-76 q-16 0 -16 18q22 96 95 150.5t181 54.5q95 0 152 -51t57 -129q0 -130 -129 -189q38 -21 62 -63t24 -96q0 -129 -80.5 -196t-210.5 -67q-98 0 -164.5 58.5t-66.5 146.5z" />
<glyph unicode="&#xb4;" horiz-adv-x="608" d="M164 1143q0 6 4 12l192 258q15 21 35 21h199q12 0 12 -9q0 -6 -6 -12l-262 -260q-18 -18 -41 -18h-123q-10 0 -10 8z" />
<glyph unicode="&#xb6;" horiz-adv-x="1292" d="M113 995q0 107 40.5 192.5t110.5 138.5t158.5 80.5t189.5 27.5h736q16 0 16 -21l-23 -123q-6 -20 -24 -20h-141l-283 -1454q-3 -21 -25 -21h-139q-16 0 -16 21l282 1454h-184l-283 -1454q-3 -21 -24 -21h-139q-17 0 -17 21l166 860h-49q-157 0 -254.5 88.5t-97.5 230.5z " />
<glyph unicode="&#xb7;" horiz-adv-x="559" d="M162 639l31 156q3 20 24 20h160q16 0 16 -20l-31 -156q-3 -21 -24 -21h-160q-16 0 -16 21z" />
<glyph unicode="&#xb8;" horiz-adv-x="532" d="M-109 -387l11 61q3 21 24 21l54 -11q53 -12 122 -12q44 0 83.5 17.5t39.5 56.5q0 25 -25 39t-71 14q-53 0 -111 -14q-6 -2 -14 -2t-14 6l-25 27q-2 2 -2 6q0 7 6 16l111 219q12 21 24 21h95q16 0 16 -10q0 -3 -4 -11l-113 -182q54 14 117 14q71 0 109 -29.5t38 -84.5 q0 -98 -74 -149.5t-190 -51.5q-110 0 -188 20q-19 6 -19 19z" />
<glyph unicode="&#xb9;" horiz-adv-x="563" d="M188 1221l19 90q2 12 18 20l191 94q18 9 33 9h51q16 0 16 -21l-141 -725q-3 -20 -25 -20h-78q-16 0 -16 20l115 594l-150 -72q-12 -6 -20 -6q-13 0 -13 17z" />
<glyph unicode="&#xba;" horiz-adv-x="956" d="M131 969q0 131 58 241t164 175t239 65q148 0 238 -87.5t90 -229.5q0 -132 -57.5 -241t-163 -174t-238.5 -65q-149 0 -239.5 87.5t-90.5 228.5zM258 979q0 -98 59 -155.5t156 -57.5q136 0 228 104t92 252q0 99 -58.5 156t-156.5 57q-135 0 -227.5 -104t-92.5 -252z" />
<glyph unicode="&#xbb;" horiz-adv-x="1169" d="M45 72l35 184q6 21 20 33l365 284l-254 287q-10 10 -10 21q0 4 2 12l33 158q4 14 14 14q6 0 12 -6l356 -406q15 -15 15 -37l-23 -112q-5 -22 -26 -37l-516 -404q-9 -6 -13 -6q-10 0 -10 15zM481 72l35 184q6 20 21 33l364 284l-254 287q-10 10 -10 21q0 4 2 12l33 158 q4 14 14 14q6 0 12 -6l357 -406q14 -14 14 -37l-22 -112q-5 -21 -27 -37l-516 -404q-9 -6 -12 -6q-11 0 -11 15z" />
<glyph unicode="&#xbc;" horiz-adv-x="1732" d="M102 72q0 5 9 14l1394 1341q7 7 15 7q7 0 14 -7l45 -51q8 -8 8 -14t-8 -14l-1395 -1342q-6 -6 -14 -6t-14 6l-45 51q-9 9 -9 15zM186 1221l19 90q2 12 18 20l191 94q18 9 32 9h52q16 0 16 -21l-141 -725q-3 -20 -25 -20h-78q-16 0 -16 20l115 594l-150 -72q-12 -6 -20 -6 q-13 0 -13 17zM858 166l10 57q2 13 15 25l448 504q14 14 27 14h72q16 0 16 -21l-96 -489h98q18 0 18 -20l-14 -70q-3 -21 -25 -21h-98l-24 -125q-3 -20 -25 -20h-78q-16 0 -16 20l24 125h-336q-16 0 -16 21zM1032 256h199l55 285z" />
<glyph unicode="&#xbd;" horiz-adv-x="1822" d="M102 72q0 5 9 14l1394 1341q7 7 15 7q7 0 14 -7l45 -51q8 -8 8 -14t-8 -14l-1395 -1342q-6 -6 -14 -6t-14 6l-45 51q-9 9 -9 15zM186 1221l19 90q2 12 18 20l191 94q18 9 32 9h52q16 0 16 -21l-141 -725q-3 -20 -25 -20h-78q-16 0 -16 20l115 594l-150 -72q-12 -6 -20 -6 q-13 0 -13 17zM1038 20l11 62q3 19 18 29l371 272q56 41 82 78.5t26 93.5q0 51 -33 82t-88 31q-61 0 -101.5 -37t-59.5 -96q-6 -21 -25 -21h-84q-16 0 -16 21q23 107 100 175t201 68q105 0 167 -60t62 -149q0 -85 -42.5 -149.5t-121.5 -122.5l-260 -186h332q16 0 16 -21 l-12 -70q-3 -20 -25 -20h-501q-17 0 -17 20z" />
<glyph unicode="&#xbe;" horiz-adv-x="1800" d="M125 860q0 11 2 27q3 20 25 20h73q17 0 17 -20q0 -59 36.5 -90t98.5 -31q68 0 109.5 35.5t41.5 103.5q0 49 -30.5 79t-87.5 30h-58q-16 0 -16 20l14 70q3 20 23 20h41q61 0 107 31.5t46 93.5q0 40 -26 67t-76 27q-49 0 -88 -25.5t-58 -78.5q-5 -16 -22 -16h-76 q-16 0 -16 18q22 96 95 150.5t181 54.5q95 0 152 -51t57 -129q0 -130 -129 -189q38 -21 62 -63t24 -96q0 -129 -80.5 -196t-210.5 -67q-98 0 -164.5 58.5t-66.5 146.5zM170 72q0 6 8 14l1395 1341q7 7 14 7q8 0 15 -7l45 -51q8 -8 8 -14t-8 -14l-1395 -1342q-6 -6 -14 -6 q-9 0 -15 6l-45 51q-8 8 -8 15zM926 166l10 57q3 14 14 25l449 504q14 14 26 14h72q16 0 16 -21l-96 -489h99q18 0 18 -20l-14 -70q-3 -21 -25 -21h-98l-25 -125q-3 -20 -24 -20h-78q-17 0 -17 20l25 125h-336q-16 0 -16 21zM1100 256h198l56 285z" />
<glyph unicode="&#xbf;" horiz-adv-x="1120" d="M-6 -88q0 67 23 124.5t60.5 99t83.5 79t94.5 72.5t90 70.5t72.5 81.5t41 98l14 75q3 21 25 21h139q16 0 16 -21l-12 -61q-15 -77 -49.5 -140t-76.5 -105.5t-89.5 -79t-92 -68t-80.5 -64t-57.5 -76t-21.5 -96.5q0 -86 57 -135t158 -49q110 0 195 61.5t125 180.5 q6 20 24 20h135q17 0 17 -20q-22 -85 -66 -157.5t-108 -128.5t-152.5 -88t-191.5 -32q-164 0 -268.5 90.5t-104.5 247.5zM502 844l33 164q3 20 24 20h172q17 0 17 -20l-33 -164q-3 -21 -25 -21h-172q-16 0 -16 21z" />
<glyph unicode="&#xc0;" d="M-133 16q0 10 6 19l774 1378q12 21 29 21h176q17 0 20 -21l240 -1388q0 -25 -25 -25h-135q-11 0 -14.5 4t-5.5 16l-64 396h-585l-220 -396q-12 -20 -28 -20h-150q-18 0 -18 16zM373 580h467l-107 647zM518 1827q0 12 17 12h194q18 0 27 -20l90 -258q2 -6 2 -11 q0 -10 -12 -10h-123q-20 0 -33 19l-160 260q-2 4 -2 8z" />
<glyph unicode="&#xc1;" d="M-133 16q0 10 6 19l774 1378q12 21 29 21h176q17 0 20 -21l240 -1388q0 -25 -25 -25h-135q-11 0 -14.5 4t-5.5 16l-64 396h-585l-220 -396q-12 -20 -28 -20h-150q-18 0 -18 16zM373 580h467l-107 647zM705 1548q0 7 4 13l192 258q14 20 35 20h199q12 0 12 -8q0 -6 -6 -12 l-262 -260q-19 -19 -41 -19h-123q-10 0 -10 8z" />
<glyph unicode="&#xc2;" d="M-133 16q0 10 6 19l774 1378q12 21 29 21h176q17 0 20 -21l240 -1388q0 -25 -25 -25h-135q-11 0 -14.5 4t-5.5 16l-64 396h-585l-220 -396q-12 -20 -28 -20h-150q-18 0 -18 16zM373 580h467l-107 647zM473 1548q0 7 6 13l266 262q16 16 35 16h115q16 0 27 -16l163 -262 q2 -5 2 -7q0 -14 -16 -14h-127q-17 0 -33 19l-100 129l-152 -129q-22 -19 -41 -19h-133q-12 0 -12 8z" />
<glyph unicode="&#xc3;" d="M-133 16q0 10 6 19l774 1378q12 21 29 21h176q17 0 20 -21l240 -1388q0 -25 -25 -25h-135q-11 0 -14.5 4t-5.5 16l-64 396h-585l-220 -396q-12 -20 -28 -20h-150q-18 0 -18 16zM373 580h467l-107 647zM446 1737q0 12 25 28q122 74 221 74q50 0 87.5 -13t55.5 -29t47 -29 t66 -13q49 0 135 51q8 4 15 4q10 0 18 -16l45 -86q2 -4 2 -6q0 -12 -24 -29q-113 -74 -221 -74q-51 0 -88.5 13t-55 29t-46.5 29t-66 13q-50 0 -136 -51q-8 -4 -14 -4q-10 0 -18 17l-45 86q-3 4 -3 6z" />
<glyph unicode="&#xc4;" d="M-133 16q0 10 6 19l774 1378q12 21 29 21h176q17 0 20 -21l240 -1388q0 -25 -25 -25h-135q-11 0 -14.5 4t-5.5 16l-64 396h-585l-220 -396q-12 -20 -28 -20h-150q-18 0 -18 16zM373 580h467l-107 647zM530 1655l31 164q3 20 25 20h164q16 0 16 -20l-31 -164 q-3 -21 -24 -21h-164q-17 0 -17 21zM870 1655l31 164q3 20 25 20h164q16 0 16 -20l-31 -164q-3 -21 -24 -21h-164q-17 0 -17 21z" />
<glyph unicode="&#xc5;" d="M-133 16q0 10 6 19l774 1378q12 21 29 21h176q17 0 20 -21l240 -1388q0 -25 -25 -25h-135q-11 0 -14.5 4t-5.5 16l-64 396h-585l-220 -396q-12 -20 -28 -20h-150q-18 0 -18 16zM373 580h467l-107 647zM651 1686q0 85 58 139.5t149 54.5q70 0 114 -41.5t44 -107.5 q0 -85 -58 -140t-149 -55q-70 0 -114 42t-44 108zM752 1696q0 -32 17 -51t50 -19q40 0 68 25.5t28 68.5q0 32 -17 51t-50 19q-40 0 -68 -25.5t-28 -68.5z" />
<glyph unicode="&#xc6;" horiz-adv-x="1732" d="M-133 16q0 9 4 17l821 1380q12 21 25 21h1018q16 0 16 -21l-25 -123q-3 -20 -24 -20h-664l-84 -434h602q17 0 17 -21l-25 -123q-3 -20 -24 -20h-602l-99 -508h695q16 0 16 -21l-25 -123q-3 -20 -24 -20h-854q-17 0 -17 20l78 396h-399l-236 -396q-11 -20 -28 -20h-144 q-18 0 -18 16zM387 580h336l135 690h-61z" />
<glyph unicode="&#xc7;" horiz-adv-x="1413" d="M78 573q0 182 54.5 341.5t154 280t251.5 190t336 69.5q231 0 376 -134t145 -341v-23q0 -20 -27 -20h-127q-17 0 -20 20q-14 164 -102.5 249t-270.5 85q-105 0 -198 -37.5t-163 -103t-121.5 -152.5t-77.5 -188.5t-26 -208.5q0 -219 105 -338t272 -119q182 0 290 78.5 t193 255.5q9 21 29 21h135q19 0 19 -21q-77 -233 -246 -360.5t-404 -136.5l-63 -105q54 14 117 14q71 0 109 -29.5t38 -84.5q0 -98 -74 -149.5t-190 -51.5q-111 0 -189 20q-18 6 -18 19l10 61q3 21 25 21l54 -11q53 -12 122 -12q44 0 83.5 17.5t39.5 56.5q0 25 -25 39 t-71 14q-53 0 -111 -14q-6 -2 -14 -2q-9 0 -15 6l-24 27q-2 2 -2 6q0 7 6 16l74 150q-202 30 -330.5 187t-128.5 398z" />
<glyph unicode="&#xc8;" horiz-adv-x="1165" d="M57 20l273 1393q3 21 24 21h813q17 0 17 -21l-25 -123q-3 -20 -24 -20h-654l-84 -434h592q17 0 17 -21l-25 -123q-3 -20 -25 -20h-591l-99 -508h684q17 0 17 -21l-25 -123q-3 -20 -24 -20h-844q-17 0 -17 20zM573 1827q0 12 17 12h194q18 0 27 -20l90 -258q2 -6 2 -11 q0 -10 -12 -10h-123q-20 0 -33 19l-160 260q-2 4 -2 8z" />
<glyph unicode="&#xc9;" horiz-adv-x="1165" d="M57 20l273 1393q3 21 24 21h813q17 0 17 -21l-25 -123q-3 -20 -24 -20h-654l-84 -434h592q17 0 17 -21l-25 -123q-3 -20 -25 -20h-591l-99 -508h684q17 0 17 -21l-25 -123q-3 -20 -24 -20h-844q-17 0 -17 20zM606 1548q0 7 4 13l193 258q14 20 35 20h198q13 0 13 -8 q0 -5 -7 -12l-262 -260q-19 -19 -41 -19h-123q-10 0 -10 8z" />
<glyph unicode="&#xca;" horiz-adv-x="1165" d="M57 20l273 1393q3 21 24 21h813q17 0 17 -21l-25 -123q-3 -20 -24 -20h-654l-84 -434h592q17 0 17 -21l-25 -123q-3 -20 -25 -20h-591l-99 -508h684q17 0 17 -21l-25 -123q-3 -20 -24 -20h-844q-17 0 -17 20zM473 1548q0 7 6 13l266 262q16 16 35 16h115q16 0 27 -16 l163 -262q2 -5 2 -7q0 -14 -16 -14h-127q-17 0 -33 19l-100 129l-152 -129q-22 -19 -41 -19h-133q-12 0 -12 8z" />
<glyph unicode="&#xcb;" horiz-adv-x="1165" d="M57 20l273 1393q3 21 24 21h813q17 0 17 -21l-25 -123q-3 -20 -24 -20h-654l-84 -434h592q17 0 17 -21l-25 -123q-3 -20 -25 -20h-591l-99 -508h684q17 0 17 -21l-25 -123q-3 -20 -24 -20h-844q-17 0 -17 20zM512 1655l31 164q3 20 24 20h164q17 0 17 -20l-31 -164 q-3 -21 -25 -21h-164q-16 0 -16 21zM852 1655l31 164q3 20 24 20h164q16 0 16 -20l-30 -164q-3 -21 -25 -21h-164q-16 0 -16 21z" />
<glyph unicode="&#xcc;" horiz-adv-x="567" d="M57 20l273 1393q3 21 24 21h140q16 0 16 -21l-272 -1393q-3 -20 -25 -20h-139q-17 0 -17 20zM209 1827q0 12 16 12h195q17 0 26 -20l91 -258q2 -6 2 -11q0 -10 -13 -10h-123q-19 0 -32 19l-160 260q-2 4 -2 8z" />
<glyph unicode="&#xcd;" horiz-adv-x="567" d="M57 20l273 1393q3 21 24 21h140q16 0 16 -21l-272 -1393q-3 -20 -25 -20h-139q-17 0 -17 20zM352 1548q0 7 4 13l193 258q14 20 35 20h198q13 0 13 -8q0 -5 -7 -12l-262 -260q-19 -19 -41 -19h-123q-10 0 -10 8z" />
<glyph unicode="&#xce;" horiz-adv-x="567" d="M57 20l273 1393q3 21 24 21h140q16 0 16 -21l-272 -1393q-3 -20 -25 -20h-139q-17 0 -17 20zM137 1548q0 7 6 13l267 262q16 16 34 16h115q16 0 27 -16l164 -262q2 -5 2 -7q0 -14 -17 -14h-127q-17 0 -33 19l-100 129l-151 -129q-22 -19 -41 -19h-133q-13 0 -13 8z" />
<glyph unicode="&#xcf;" horiz-adv-x="567" d="M57 20l273 1393q3 21 24 21h140q16 0 16 -21l-272 -1393q-3 -20 -25 -20h-139q-17 0 -17 20zM188 1655l31 164q3 20 25 20h164q16 0 16 -20l-31 -164q-3 -21 -24 -21h-164q-17 0 -17 21zM528 1655l31 164q3 20 25 20h164q16 0 16 -20l-31 -164q-3 -21 -24 -21h-164 q-17 0 -17 21z" />
<glyph unicode="&#xd0;" horiz-adv-x="1413" d="M39 657l22 119q3 21 23 21h162l121 616q3 21 24 21h393q116 0 215 -35t174 -102.5t117.5 -174t42.5 -241.5q0 -182 -58 -343t-162 -280t-258.5 -188.5t-338.5 -69.5h-405q-17 0 -17 20l121 617h-160q-16 0 -16 20zM303 164h221q139 0 257.5 55t198.5 148.5t124.5 219.5 t44.5 267q0 204 -110.5 310t-299.5 106h-221l-92 -473h322q16 0 16 -21l-23 -119q-3 -20 -24 -20h-322z" />
<glyph unicode="&#xd1;" horiz-adv-x="1468" d="M57 20l273 1393q3 21 24 21h156q24 0 29 -17l469 -1147l223 1143q3 21 24 21h140q16 0 16 -21l-272 -1393q-3 -20 -25 -20h-156q-23 0 -28 16l-469 1147l-223 -1143q-3 -20 -25 -20h-139q-17 0 -17 20zM547 1737q0 13 24 28q122 74 222 74q50 0 87.5 -13t55.5 -29t47 -29 t66 -13q49 0 135 51q8 4 14 4q11 0 19 -16l45 -86q2 -4 2 -6q0 -11 -25 -29q-113 -74 -221 -74q-51 0 -88.5 13t-55 29t-46.5 29t-66 13q-49 0 -135 -51q-8 -4 -15 -4q-10 0 -18 17l-45 86q-2 4 -2 6z" />
<glyph unicode="&#xd2;" horiz-adv-x="1538" d="M78 582q0 134 34 261.5t101.5 238t160.5 194t220 131t272 47.5q272 0 432 -161.5t160 -440.5q0 -134 -34 -261.5t-101.5 -238t-160.5 -194t-220 -131t-272 -47.5q-272 0 -432 161.5t-160 440.5zM262 594q0 -212 112.5 -331.5t305.5 -119.5q134 0 247.5 58t188.5 155 t116.5 222.5t41.5 261.5q0 212 -112 331t-306 119q-134 0 -247.5 -58t-188.5 -154.5t-116.5 -222t-41.5 -261.5zM694 1827q0 12 17 12h194q18 0 27 -20l90 -258q2 -6 2 -11q0 -10 -12 -10h-123q-20 0 -33 19l-160 260q-2 4 -2 8z" />
<glyph unicode="&#xd3;" horiz-adv-x="1538" d="M78 582q0 134 34 261.5t101.5 238t160.5 194t220 131t272 47.5q272 0 432 -161.5t160 -440.5q0 -134 -34 -261.5t-101.5 -238t-160.5 -194t-220 -131t-272 -47.5q-272 0 -432 161.5t-160 440.5zM262 594q0 -212 112.5 -331.5t305.5 -119.5q134 0 247.5 58t188.5 155 t116.5 222.5t41.5 261.5q0 212 -112 331t-306 119q-134 0 -247.5 -58t-188.5 -154.5t-116.5 -222t-41.5 -261.5zM768 1548q0 7 4 13l193 258q14 20 34 20h199q12 0 12 -8q0 -6 -6 -12l-262 -260q-19 -19 -41 -19h-123q-10 0 -10 8z" />
<glyph unicode="&#xd4;" horiz-adv-x="1538" d="M78 582q0 134 34 261.5t101.5 238t160.5 194t220 131t272 47.5q272 0 432 -161.5t160 -440.5q0 -134 -34 -261.5t-101.5 -238t-160.5 -194t-220 -131t-272 -47.5q-272 0 -432 161.5t-160 440.5zM262 594q0 -212 112.5 -331.5t305.5 -119.5q134 0 247.5 58t188.5 155 t116.5 222.5t41.5 261.5q0 212 -112 331t-306 119q-134 0 -247.5 -58t-188.5 -154.5t-116.5 -222t-41.5 -261.5zM590 1548q0 7 6 13l266 262q16 16 35 16h115q15 0 26 -16l164 -262q2 -5 2 -7q0 -14 -16 -14h-127q-17 0 -33 19l-100 129l-152 -129q-22 -19 -41 -19h-133 q-12 0 -12 8z" />
<glyph unicode="&#xd5;" horiz-adv-x="1538" d="M78 582q0 134 34 261.5t101.5 238t160.5 194t220 131t272 47.5q272 0 432 -161.5t160 -440.5q0 -134 -34 -261.5t-101.5 -238t-160.5 -194t-220 -131t-272 -47.5q-272 0 -432 161.5t-160 440.5zM262 594q0 -212 112.5 -331.5t305.5 -119.5q134 0 247.5 58t188.5 155 t116.5 222.5t41.5 261.5q0 212 -112 331t-306 119q-134 0 -247.5 -58t-188.5 -154.5t-116.5 -222t-41.5 -261.5zM610 1737q0 12 25 28q122 74 221 74q50 0 87.5 -13t55.5 -29t47 -29t66 -13q49 0 135 51q8 4 15 4q10 0 18 -16l45 -86q2 -4 2 -6q0 -12 -24 -29 q-113 -74 -222 -74q-51 0 -88.5 13t-55 29t-46.5 29t-66 13q-49 0 -135 -51q-8 -4 -14 -4q-10 0 -19 17l-45 86q-2 4 -2 6z" />
<glyph unicode="&#xd6;" horiz-adv-x="1538" d="M78 582q0 134 34 261.5t101.5 238t160.5 194t220 131t272 47.5q272 0 432 -161.5t160 -440.5q0 -134 -34 -261.5t-101.5 -238t-160.5 -194t-220 -131t-272 -47.5q-272 0 -432 161.5t-160 440.5zM262 594q0 -212 112.5 -331.5t305.5 -119.5q134 0 247.5 58t188.5 155 t116.5 222.5t41.5 261.5q0 212 -112 331t-306 119q-134 0 -247.5 -58t-188.5 -154.5t-116.5 -222t-41.5 -261.5zM668 1655l30 164q3 20 25 20h164q16 0 16 -20l-31 -164q-3 -21 -24 -21h-164q-16 0 -16 21zM1008 1655l30 164q3 20 25 20h164q16 0 16 -20l-31 -164 q-3 -21 -24 -21h-164q-16 0 -16 21z" />
<glyph unicode="&#xd7;" horiz-adv-x="1009" d="M90 446q0 10 10 17l310 258l-199 235q-4 6 -4 13q0 9 10 16l92 78q11 8 17 8q4 0 12 -8l197 -242l292 250q11 8 17 8q4 0 12 -8l78 -90q4 -6 4 -12q0 -7 -10 -17l-293 -252l199 -249q4 -6 4 -13q0 -5 -11 -16l-90 -78q-8 -8 -16 -8q-4 0 -12 8l-203 256l-303 -262 q-8 -8 -15 -8q-6 0 -14 8l-80 96q-4 6 -4 12z" />
<glyph unicode="&#xd8;" horiz-adv-x="1538" d="M78 582q0 134 34 261.5t101.5 238t160.5 194t220 131t272 47.5q201 0 344 -90l123 158q9 12 19 12q6 0 12 -4l49 -33q8 -5 8 -14q0 -6 -6 -15l-129 -165q172 -161 172 -451q0 -134 -34 -261.5t-101.5 -238t-160.5 -194t-220 -131t-272 -47.5q-201 0 -344 90l-123 -158 q-9 -12 -19 -12q-6 0 -12 4l-49 33q-8 5 -8 14q0 5 6 14l129 166q-172 161 -172 451zM262 594q0 -203 100 -318l738 947q-98 67 -244 67q-134 0 -247.5 -58t-188.5 -154.5t-116.5 -222t-41.5 -261.5zM436 211q100 -68 244 -68q134 0 247.5 58t188.5 155t116.5 222.5 t41.5 261.5q0 202 -100 317z" />
<glyph unicode="&#xd9;" horiz-adv-x="1349" d="M119 385q0 76 14 145l172 883q3 21 25 21h139q16 0 16 -21l-174 -895q-12 -67 -12 -127q0 -248 266 -248q163 0 264.5 97t137.5 278l174 895q3 21 24 21h140q16 0 16 -21l-180 -917q-54 -275 -203 -395.5t-406 -120.5q-186 0 -299.5 105.5t-113.5 299.5zM618 1827 q0 12 17 12h194q18 0 27 -20l90 -258q2 -6 2 -11q0 -10 -12 -10h-123q-20 0 -33 19l-159 260q-3 6 -3 8z" />
<glyph unicode="&#xda;" horiz-adv-x="1349" d="M119 385q0 76 14 145l172 883q3 21 25 21h139q16 0 16 -21l-174 -895q-12 -67 -12 -127q0 -248 266 -248q163 0 264.5 97t137.5 278l174 895q3 21 24 21h140q16 0 16 -21l-180 -917q-54 -275 -203 -395.5t-406 -120.5q-186 0 -299.5 105.5t-113.5 299.5zM688 1548 q0 7 4 13l193 258q14 20 35 20h198q12 0 12 -8q0 -6 -6 -12l-262 -260q-19 -19 -41 -19h-123q-10 0 -10 8z" />
<glyph unicode="&#xdb;" horiz-adv-x="1349" d="M119 385q0 76 14 145l172 883q3 21 25 21h139q16 0 16 -21l-174 -895q-12 -67 -12 -127q0 -248 266 -248q163 0 264.5 97t137.5 278l174 895q3 21 24 21h140q16 0 16 -21l-180 -917q-54 -275 -203 -395.5t-406 -120.5q-186 0 -299.5 105.5t-113.5 299.5zM530 1548 q0 6 7 13l266 262q16 16 35 16h114q16 0 27 -16l164 -262q2 -5 2 -7q0 -14 -17 -14h-127q-16 0 -32 19l-101 129l-151 -129q-22 -19 -41 -19h-133q-13 0 -13 8z" />
<glyph unicode="&#xdc;" horiz-adv-x="1349" d="M119 385q0 76 14 145l172 883q3 21 25 21h139q16 0 16 -21l-174 -895q-12 -67 -12 -127q0 -248 266 -248q163 0 264.5 97t137.5 278l174 895q3 21 24 21h140q16 0 16 -21l-180 -917q-54 -275 -203 -395.5t-406 -120.5q-186 0 -299.5 105.5t-113.5 299.5zM580 1655l30 164 q3 20 25 20h164q16 0 16 -20l-31 -164q-3 -21 -24 -21h-164q-16 0 -16 21zM920 1655l30 164q3 20 25 20h164q16 0 16 -20l-31 -164q-3 -21 -24 -21h-164q-16 0 -16 21z" />
<glyph unicode="&#xdd;" horiz-adv-x="1081" d="M119 1413q0 21 16 21h162q8 0 11.5 -3.5t6.5 -13.5l203 -688l477 688q10 17 27 17h170q12 0 12 -11q0 -4 -4 -10l-622 -885l-101 -508q-3 -20 -24 -20h-140q-16 0 -16 20l100 508zM522 1548q0 7 4 13l193 258q14 20 35 20h198q13 0 13 -8q0 -5 -7 -12l-262 -260 q-19 -19 -41 -19h-123q-10 0 -10 8z" />
<glyph unicode="&#xde;" horiz-adv-x="1292" d="M57 20l271 1393q3 21 24 21h140q16 0 16 -21l-59 -297h342q190 0 296.5 -88t106.5 -237q0 -226 -149 -350t-406 -124h-344l-57 -297q-3 -20 -25 -20h-139q-17 0 -17 20zM326 481h370q143 0 228.5 71t85.5 214q0 88 -57 137t-165 49h-370z" />
<glyph unicode="&#xdf;" horiz-adv-x="1243" d="M57 897l21 111q3 20 24 20h154l12 66q30 164 155.5 262t297.5 98q154 0 245 -83.5t91 -219.5q0 -66 -25.5 -121t-62 -91t-73 -65.5t-62 -57t-25.5 -52.5q0 -29 30.5 -57.5t74 -57t87.5 -63t74.5 -90.5t30.5 -125q0 -183 -118.5 -287t-299.5 -104q-139 0 -233.5 86 t-94.5 198q0 8 5 43q3 21 24 21h111q16 0 16 -21q3 -77 50 -126.5t141 -49.5q99 0 161 60.5t62 160.5q0 57 -30 99.5t-72 70t-84.5 54.5t-72.5 69t-30 98q0 44 19 82.5t47 64.5t61 54.5t61 52.5t47 57t19 70q0 86 -50.5 132.5t-146.5 46.5q-107 0 -176 -64t-94 -186 l-201 -1033q-3 -20 -24 -20h-127q-17 0 -17 20l168 857h-153q-17 0 -17 20z" />
<glyph unicode="&#xe0;" horiz-adv-x="1239" d="M57 436q0 117 37.5 225.5t107 195.5t180.5 139.5t247 52.5q200 0 307 -131l16 90q3 20 25 20h127q16 0 16 -20l-190 -988q-6 -20 -25 -20h-127q-16 0 -16 20l16 82q-74 -68 -144.5 -95t-180.5 -27q-181 0 -288.5 126.5t-107.5 329.5zM233 436q0 -143 67.5 -224t188.5 -81 q116 0 208 69t140 180t48 241q0 128 -71 202t-198 74q-88 0 -162 -39t-121.5 -104t-73.5 -147.5t-26 -170.5zM473 1421q0 13 16 13h195q18 0 27 -21l90 -258q2 -6 2 -10q0 -10 -12 -10h-123q-21 0 -33 18l-160 260q-2 4 -2 8z" />
<glyph unicode="&#xe1;" horiz-adv-x="1239" d="M57 436q0 117 37.5 225.5t107 195.5t180.5 139.5t247 52.5q200 0 307 -131l16 90q3 20 25 20h127q16 0 16 -20l-190 -988q-6 -20 -25 -20h-127q-16 0 -16 20l16 82q-74 -68 -144.5 -95t-180.5 -27q-181 0 -288.5 126.5t-107.5 329.5zM233 436q0 -143 67.5 -224t188.5 -81 q116 0 208 69t140 180t48 241q0 128 -71 202t-198 74q-88 0 -162 -39t-121.5 -104t-73.5 -147.5t-26 -170.5zM483 1143q0 6 4 12l193 258q15 21 35 21h198q13 0 13 -9q0 -6 -6 -12l-263 -260q-18 -18 -41 -18h-122q-11 0 -11 8z" />
<glyph unicode="&#xe2;" horiz-adv-x="1239" d="M57 436q0 117 37.5 225.5t107 195.5t180.5 139.5t247 52.5q200 0 307 -131l16 90q3 20 25 20h127q16 0 16 -20l-190 -988q-6 -20 -25 -20h-127q-16 0 -16 20l16 82q-74 -68 -144.5 -95t-180.5 -27q-181 0 -288.5 126.5t-107.5 329.5zM233 436q0 -143 67.5 -224t188.5 -81 q116 0 208 69t140 180t48 241q0 128 -71 202t-198 74q-88 0 -162 -39t-121.5 -104t-73.5 -147.5t-26 -170.5zM369 1143q0 6 6 12l266 262q17 17 35 17h115q15 0 26 -17l164 -262q2 -4 2 -6q0 -14 -16 -14h-127q-18 0 -33 18l-100 129l-152 -129q-21 -18 -41 -18h-133 q-12 0 -12 8z" />
<glyph unicode="&#xe3;" horiz-adv-x="1239" d="M57 436q0 117 37.5 225.5t107 195.5t180.5 139.5t247 52.5q200 0 307 -131l16 90q3 20 25 20h127q16 0 16 -20l-190 -988q-6 -20 -25 -20h-127q-16 0 -16 20l16 82q-74 -68 -144.5 -95t-180.5 -27q-181 0 -288.5 126.5t-107.5 329.5zM233 436q0 -143 67.5 -224t188.5 -81 q116 0 208 69t140 180t48 241q0 128 -71 202t-198 74q-88 0 -162 -39t-121.5 -104t-73.5 -147.5t-26 -170.5zM346 1331q0 13 25 29q122 74 221 74q50 0 87.5 -13t55.5 -29t47 -29t66 -13q49 0 135 51q8 4 14 4q11 0 19 -16l45 -86q2 -5 2 -7q0 -10 -25 -28 q-113 -74 -221 -74q-51 0 -88.5 13t-55 29t-46.5 29t-66 13q-49 0 -135 -51q-8 -4 -14 -4q-11 0 -19 16l-45 86q-2 4 -2 6z" />
<glyph unicode="&#xe4;" horiz-adv-x="1239" d="M57 436q0 117 37.5 225.5t107 195.5t180.5 139.5t247 52.5q200 0 307 -131l16 90q3 20 25 20h127q16 0 16 -20l-190 -988q-6 -20 -25 -20h-127q-16 0 -16 20l16 82q-74 -68 -144.5 -95t-180.5 -27q-181 0 -288.5 126.5t-107.5 329.5zM233 436q0 -143 67.5 -224t188.5 -81 q116 0 208 69t140 180t48 241q0 128 -71 202t-198 74q-88 0 -162 -39t-121.5 -104t-73.5 -147.5t-26 -170.5zM436 1249l31 164q3 21 25 21h163q17 0 17 -21l-31 -164q-3 -20 -25 -20h-163q-17 0 -17 20zM776 1249l31 164q3 21 24 21h164q17 0 17 -21l-31 -164 q-3 -20 -25 -20h-163q-17 0 -17 20z" />
<glyph unicode="&#xe5;" horiz-adv-x="1239" d="M57 436q0 117 37.5 225.5t107 195.5t180.5 139.5t247 52.5q200 0 307 -131l16 90q3 20 25 20h127q16 0 16 -20l-190 -988q-6 -20 -25 -20h-127q-16 0 -16 20l16 82q-74 -68 -144.5 -95t-180.5 -27q-181 0 -288.5 126.5t-107.5 329.5zM233 436q0 -143 67.5 -224t188.5 -81 q116 0 208 69t140 180t48 241q0 128 -71 202t-198 74q-88 0 -162 -39t-121.5 -104t-73.5 -147.5t-26 -170.5zM535 1280q0 85 58 140t148 55q70 0 114 -42t44 -108q0 -85 -58 -140t-149 -55q-70 0 -113.5 42t-43.5 108zM635 1290q0 -32 17 -50.5t50 -18.5q40 0 68.5 25.5 t28.5 68.5q0 32 -17.5 50.5t-50.5 18.5q-40 0 -68 -25.5t-28 -68.5z" />
<glyph unicode="&#xe6;" horiz-adv-x="1931" d="M57 270q0 116 63.5 203t167 130.5t230.5 43.5q154 0 295 -43l10 53q6 34 6 64q0 85 -52.5 130.5t-153.5 45.5q-90 0 -160 -40.5t-113 -115.5q-9 -18 -33 -18h-129q-14 0 -14 12q0 9 6 21q131 293 459 293q118 0 204 -48.5t124 -128.5q83 83 194 130t240 47 q192 0 301.5 -121.5t109.5 -309.5q0 -51 -10 -100l-6 -33q-6 -20 -24 -20h-803q-4 -28 -4 -53q0 -130 70 -205.5t202 -75.5q210 0 334 188q12 19 33 19h133q10 0 10 -10q0 -9 -8 -25q-87 -169 -217.5 -246t-307.5 -77q-133 0 -228 60t-144 165q-73 -108 -183 -166.5 t-249 -58.5q-94 0 -172.5 30.5t-129.5 98t-51 161.5zM233 291q0 -77 47 -118.5t130 -41.5q135 0 239.5 84t132.5 234q-126 47 -274 47q-51 0 -98 -11t-87.5 -34t-65 -64t-24.5 -96zM999 616h646q0 134 -71.5 207.5t-201.5 73.5q-121 0 -220 -72t-153 -209z" />
<glyph unicode="&#xe7;" horiz-adv-x="1148" d="M57 436q0 172 77.5 312t217 220.5t314.5 80.5q172 0 281 -100t112 -253q0 -22 -19 -22h-125q-21 0 -26 18q-27 205 -250 205q-176 0 -291 -133t-115 -326q0 -148 68.5 -227.5t204.5 -79.5q201 0 311 205q9 18 31 18h129q12 0 12 -12q0 -8 -6 -20q-73 -165 -191 -252 t-303 -90l-63 -105q54 14 117 14q71 0 109 -29.5t38 -84.5q0 -98 -74 -149.5t-190 -51.5q-110 0 -188 20q-19 6 -19 19l10 61q3 21 25 21q7 0 27.5 -5.5t59.5 -11.5t89 -6q44 0 83.5 17.5t39.5 56.5q0 25 -25 39t-71 14q-53 0 -111 -14q-6 -2 -14 -2q-9 0 -15 6l-24 27 q-2 2 -2 6q0 7 6 16l76 154q-150 32 -233 152.5t-83 291.5z" />
<glyph unicode="&#xe8;" horiz-adv-x="1196" d="M57 442q0 120 45 230.5t124 194t193.5 133t246.5 49.5q192 0 301.5 -121.5t109.5 -309.5q0 -51 -10 -100l-6 -33q-6 -20 -25 -20h-798q-5 -35 -5 -53q0 -131 68.5 -206t200.5 -75q210 0 334 188q12 19 32 19h133q11 0 11 -10q0 -9 -8 -25q-87 -169 -217.5 -246 t-307.5 -77q-199 0 -310.5 130.5t-111.5 331.5zM266 616h643q0 134 -71 207.5t-201 73.5q-121 0 -219 -72t-152 -209zM457 1421q0 13 16 13h195q17 0 26 -21l90 -258q2 -6 2 -10q0 -10 -12 -10h-123q-21 0 -33 18l-159 260q-2 4 -2 8z" />
<glyph unicode="&#xe9;" horiz-adv-x="1196" d="M57 442q0 120 45 230.5t124 194t193.5 133t246.5 49.5q192 0 301.5 -121.5t109.5 -309.5q0 -51 -10 -100l-6 -33q-6 -20 -25 -20h-798q-5 -35 -5 -53q0 -131 68.5 -206t200.5 -75q210 0 334 188q12 19 32 19h133q11 0 11 -10q0 -9 -8 -25q-87 -169 -217.5 -246 t-307.5 -77q-199 0 -310.5 130.5t-111.5 331.5zM266 616h643q0 134 -71 207.5t-201 73.5q-121 0 -219 -72t-152 -209zM545 1143q0 6 4 12l192 258q15 21 35 21h199q12 0 12 -9q0 -6 -6 -12l-262 -260q-18 -18 -41 -18h-123q-10 0 -10 8z" />
<glyph unicode="&#xea;" horiz-adv-x="1196" d="M57 442q0 120 45 230.5t124 194t193.5 133t246.5 49.5q192 0 301.5 -121.5t109.5 -309.5q0 -51 -10 -100l-6 -33q-6 -20 -25 -20h-798q-5 -35 -5 -53q0 -131 68.5 -206t200.5 -75q210 0 334 188q12 19 32 19h133q11 0 11 -10q0 -9 -8 -25q-87 -169 -217.5 -246 t-307.5 -77q-199 0 -310.5 130.5t-111.5 331.5zM266 616h643q0 134 -71 207.5t-201 73.5q-121 0 -219 -72t-152 -209zM393 1143q0 6 6 12l267 262q17 17 34 17h115q16 0 27 -17l164 -262q2 -4 2 -6q0 -14 -17 -14h-127q-18 0 -33 18l-100 129l-151 -129q-21 -18 -41 -18 h-133q-13 0 -13 8z" />
<glyph unicode="&#xeb;" horiz-adv-x="1196" d="M57 442q0 120 45 230.5t124 194t193.5 133t246.5 49.5q192 0 301.5 -121.5t109.5 -309.5q0 -51 -10 -100l-6 -33q-6 -20 -25 -20h-798q-5 -35 -5 -53q0 -131 68.5 -206t200.5 -75q210 0 334 188q12 19 32 19h133q11 0 11 -10q0 -9 -8 -25q-87 -169 -217.5 -246 t-307.5 -77q-199 0 -310.5 130.5t-111.5 331.5zM266 616h643q0 134 -71 207.5t-201 73.5q-121 0 -219 -72t-152 -209zM444 1249l31 164q3 21 25 21h164q16 0 16 -21l-31 -164q-3 -20 -24 -20h-164q-17 0 -17 20zM784 1249l31 164q3 21 25 21h164q16 0 16 -21l-31 -164 q-3 -20 -24 -20h-164q-17 0 -17 20z" />
<glyph unicode="&#xec;" horiz-adv-x="548" d="M61 20l193 988q3 20 25 20h127q16 0 16 -20l-193 -988q-3 -20 -24 -20h-127q-17 0 -17 20zM106 1421q0 5 5 9t12 4h194q18 0 27 -21l90 -258q2 -6 2 -10q0 -10 -12 -10h-123q-21 0 -33 18l-159 260q-3 6 -3 8z" />
<glyph unicode="&#xed;" horiz-adv-x="548" d="M61 20l193 988q3 20 25 20h127q16 0 16 -20l-193 -988q-3 -20 -24 -20h-127q-17 0 -17 20zM274 1143q0 5 5 12l192 258q15 21 35 21h199q12 0 12 -9q0 -6 -6 -12l-262 -260q-18 -18 -41 -18h-123q-11 0 -11 8z" />
<glyph unicode="&#xee;" horiz-adv-x="548" d="M61 20l193 988q3 20 25 20h127q16 0 16 -20l-193 -988q-3 -20 -24 -20h-127q-17 0 -17 20zM61 1143q0 5 7 12l266 262q17 17 35 17h114q16 0 27 -17l164 -262q2 -4 2 -6q0 -14 -17 -14h-127q-17 0 -32 18l-101 129l-151 -129q-21 -18 -41 -18h-133q-13 0 -13 8z" />
<glyph unicode="&#xef;" horiz-adv-x="548" d="M61 20l193 988q3 20 25 20h127q16 0 16 -20l-193 -988q-3 -20 -24 -20h-127q-17 0 -17 20zM109 1249l30 164q3 21 25 21h164q16 0 16 -21l-31 -164q-3 -20 -24 -20h-164q-16 0 -16 20zM449 1249l30 164q3 21 25 21h164q16 0 16 -21l-31 -164q-3 -20 -24 -20h-164 q-16 0 -16 20z" />
<glyph unicode="&#xf0;" horiz-adv-x="1222" d="M57 438q0 119 41.5 229t116 195t187.5 136t247 51q203 0 279 -121q-6 88 -33.5 144.5t-79.5 96.5l-233 -84q-19 -7 -25 11l-31 92q-5 16 19 26l125 46q-63 25 -187 38q-20 3 -10 29l29 103q4 14 30 14q201 -23 347 -111l217 78q18 8 24 -10l31 -92q6 -20 -18 -27 l-136 -49q51 -64 80 -186t29 -244q0 -127 -21.5 -244t-70.5 -223.5t-121 -184.5t-180 -124.5t-240 -46.5q-188 0 -302 124t-114 334zM225 438q0 -145 67 -226t195 -81q117 0 213 68t147.5 174t51.5 223q0 143 -68 222t-200 79q-125 0 -219 -64t-140.5 -167t-46.5 -228z" />
<glyph unicode="&#xf1;" horiz-adv-x="1218" d="M61 20l191 988q6 20 24 20h127q17 0 17 -20l-23 -117q80 78 162 118t189 40q146 0 225.5 -70t79.5 -199q0 -24 -13 -104l-127 -656q-3 -20 -24 -20h-127q-17 0 -17 20l123 631q9 52 9 78q0 168 -187 168q-57 0 -113.5 -24t-106 -69t-87.5 -117.5t-55 -162.5l-99 -504 q-6 -20 -24 -20h-127q-17 0 -17 20zM381 1331q0 13 25 29q122 74 221 74q50 0 87.5 -13t55.5 -29t47 -29t66 -13q49 0 135 51q8 4 14 4q11 0 19 -16l45 -86q2 -5 2 -7q0 -10 -25 -28q-113 -74 -221 -74q-51 0 -88.5 13t-55 29t-46.5 29t-66 13q-49 0 -135 -51q-8 -4 -15 -4 q-10 0 -18 16l-45 86q-2 4 -2 6z" />
<glyph unicode="&#xf2;" horiz-adv-x="1245" d="M57 403q0 132 45.5 250.5t125.5 205.5t196 138.5t250 51.5q199 0 319.5 -117t120.5 -307q0 -176 -77 -323t-219 -234.5t-320 -87.5q-199 0 -320 116.5t-121 306.5zM233 418q0 -133 76.5 -210t206.5 -77q120 0 217.5 65.5t151 175t53.5 238.5q0 133 -76.5 210t-206.5 77 q-120 0 -217.5 -65.5t-151 -175t-53.5 -238.5zM494 1421q0 13 16 13h195q17 0 26 -21l90 -258q2 -6 2 -10q0 -10 -12 -10h-123q-21 0 -33 18l-159 260q-2 4 -2 8z" />
<glyph unicode="&#xf3;" horiz-adv-x="1245" d="M57 403q0 132 45.5 250.5t125.5 205.5t196 138.5t250 51.5q199 0 319.5 -117t120.5 -307q0 -176 -77 -323t-219 -234.5t-320 -87.5q-199 0 -320 116.5t-121 306.5zM233 418q0 -133 76.5 -210t206.5 -77q120 0 217.5 65.5t151 175t53.5 238.5q0 133 -76.5 210t-206.5 77 q-120 0 -217.5 -65.5t-151 -175t-53.5 -238.5zM532 1143q0 5 5 12l192 258q15 21 35 21h199q12 0 12 -9q0 -6 -6 -12l-262 -260q-18 -18 -41 -18h-123q-11 0 -11 8z" />
<glyph unicode="&#xf4;" horiz-adv-x="1245" d="M57 403q0 132 45.5 250.5t125.5 205.5t196 138.5t250 51.5q199 0 319.5 -117t120.5 -307q0 -176 -77 -323t-219 -234.5t-320 -87.5q-199 0 -320 116.5t-121 306.5zM233 418q0 -133 76.5 -210t206.5 -77q120 0 217.5 65.5t151 175t53.5 238.5q0 133 -76.5 210t-206.5 77 q-120 0 -217.5 -65.5t-151 -175t-53.5 -238.5zM412 1143q0 6 6 12l266 262q17 17 35 17h115q15 0 26 -17l164 -262q2 -4 2 -6q0 -14 -16 -14h-127q-18 0 -33 18l-100 129l-152 -129q-21 -18 -41 -18h-133q-12 0 -12 8z" />
<glyph unicode="&#xf5;" horiz-adv-x="1245" d="M57 403q0 132 45.5 250.5t125.5 205.5t196 138.5t250 51.5q199 0 319.5 -117t120.5 -307q0 -176 -77 -323t-219 -234.5t-320 -87.5q-199 0 -320 116.5t-121 306.5zM233 418q0 -133 76.5 -210t206.5 -77q120 0 217.5 65.5t151 175t53.5 238.5q0 133 -76.5 210t-206.5 77 q-120 0 -217.5 -65.5t-151 -175t-53.5 -238.5zM406 1331q0 14 24 29q122 74 221 74q50 0 87.5 -13t55.5 -29t47 -29t66 -13q49 0 135 51q8 4 15 4q10 0 18 -16l45 -86q2 -5 2 -7q0 -11 -24 -28q-113 -74 -221 -74q-51 0 -88.5 13t-55 29t-46.5 29t-66 13q-50 0 -136 -51 q-8 -4 -14 -4q-10 0 -18 16l-45 86q-2 4 -2 6z" />
<glyph unicode="&#xf6;" horiz-adv-x="1245" d="M57 403q0 132 45.5 250.5t125.5 205.5t196 138.5t250 51.5q199 0 319.5 -117t120.5 -307q0 -176 -77 -323t-219 -234.5t-320 -87.5q-199 0 -320 116.5t-121 306.5zM233 418q0 -133 76.5 -210t206.5 -77q120 0 217.5 65.5t151 175t53.5 238.5q0 133 -76.5 210t-206.5 77 q-120 0 -217.5 -65.5t-151 -175t-53.5 -238.5zM457 1249l30 164q3 21 25 21h164q16 0 16 -21l-30 -164q-3 -20 -25 -20h-164q-16 0 -16 20zM797 1249l30 164q3 21 25 21h164q16 0 16 -21l-31 -164q-3 -20 -24 -20h-164q-16 0 -16 20z" />
<glyph unicode="&#xf7;" horiz-adv-x="1193" d="M129 455l23 118q3 21 24 21h864q17 0 17 -21l-23 -118q-3 -21 -24 -21h-865q-16 0 -16 21zM389 20l29 156q3 21 24 21h160q16 0 16 -21l-28 -156q-3 -20 -25 -20h-159q-17 0 -17 20zM551 852l29 156q3 20 24 20h160q16 0 16 -20l-28 -156q-3 -21 -25 -21h-160 q-16 0 -16 21z" />
<glyph unicode="&#xf8;" horiz-adv-x="1245" d="M57 403q0 132 45.5 250.5t125.5 205.5t196 138.5t250 51.5q126 0 225 -52l88 115q9 12 19 12q6 0 12 -4l49 -33q8 -5 8 -14q0 -5 -6 -14l-90 -115q135 -119 135 -319q0 -176 -77 -323t-219 -234.5t-320 -87.5q-129 0 -226 51l-88 -115q-9 -12 -18 -12q-6 0 -12 4l-50 33 q-8 5 -8 14q0 5 6 14l91 115q-136 120 -136 319zM233 418q0 -125 66 -197l498 645q-64 31 -142 31q-120 0 -217.5 -65.5t-151 -175t-53.5 -238.5zM375 162q64 -31 141 -31q120 0 217.5 65.5t151 175t53.5 238.5q0 125 -66 197z" />
<glyph unicode="&#xf9;" horiz-adv-x="1206" d="M96 248q0 24 13 104l127 656q3 20 24 20h127q10 0 13 -4.5t3 -15.5l-122 -631q-9 -53 -9 -78q0 -168 187 -168q57 0 113.5 24t106 69t87.5 117.5t55 162.5l99 504q6 20 24 20h127q10 0 13 -4.5t3 -15.5l-190 -988q-6 -20 -25 -20h-127q-16 0 -16 20l23 117 q-80 -78 -161.5 -117.5t-189.5 -39.5q-146 0 -225.5 69.5t-79.5 198.5zM494 1421q0 13 16 13h195q17 0 26 -21l90 -258q2 -6 2 -10q0 -10 -12 -10h-123q-21 0 -33 18l-159 260q-2 4 -2 8z" />
<glyph unicode="&#xfa;" horiz-adv-x="1206" d="M96 248q0 24 13 104l127 656q3 20 24 20h127q10 0 13 -4.5t3 -15.5l-122 -631q-9 -53 -9 -78q0 -168 187 -168q57 0 113.5 24t106 69t87.5 117.5t55 162.5l99 504q6 20 24 20h127q10 0 13 -4.5t3 -15.5l-190 -988q-6 -20 -25 -20h-127q-16 0 -16 20l23 117 q-80 -78 -161.5 -117.5t-189.5 -39.5q-146 0 -225.5 69.5t-79.5 198.5zM524 1143q0 6 4 12l193 258q15 21 35 21h198q13 0 13 -9q0 -6 -6 -12l-263 -260q-18 -18 -41 -18h-122q-11 0 -11 8z" />
<glyph unicode="&#xfb;" horiz-adv-x="1206" d="M96 248q0 24 13 104l127 656q3 20 24 20h127q10 0 13 -4.5t3 -15.5l-122 -631q-9 -53 -9 -78q0 -168 187 -168q57 0 113.5 24t106 69t87.5 117.5t55 162.5l99 504q6 20 24 20h127q10 0 13 -4.5t3 -15.5l-190 -988q-6 -20 -25 -20h-127q-16 0 -16 20l23 117 q-80 -78 -161.5 -117.5t-189.5 -39.5q-146 0 -225.5 69.5t-79.5 198.5zM377 1143q0 6 6 12l266 262q17 17 35 17h115q15 0 26 -17l164 -262q2 -4 2 -6q0 -14 -16 -14h-127q-18 0 -33 18l-100 129l-152 -129q-21 -18 -41 -18h-133q-12 0 -12 8z" />
<glyph unicode="&#xfc;" horiz-adv-x="1206" d="M96 248q0 24 13 104l127 656q3 20 24 20h127q10 0 13 -4.5t3 -15.5l-122 -631q-9 -53 -9 -78q0 -168 187 -168q57 0 113.5 24t106 69t87.5 117.5t55 162.5l99 504q6 20 24 20h127q10 0 13 -4.5t3 -15.5l-190 -988q-6 -20 -25 -20h-127q-16 0 -16 20l23 117 q-80 -78 -161.5 -117.5t-189.5 -39.5q-146 0 -225.5 69.5t-79.5 198.5zM426 1249l31 164q3 21 24 21h164q17 0 17 -21l-31 -164q-3 -20 -25 -20h-164q-16 0 -16 20zM766 1249l31 164q3 21 24 21h164q16 0 16 -21l-30 -164q-3 -20 -25 -20h-164q-16 0 -16 20z" />
<glyph unicode="&#xfd;" horiz-adv-x="1075" d="M-127 -373l2 13l21 110q6 21 20 21q9 0 24.5 -11.5t44 -22.5t68.5 -11q149 0 271 256l-218 1013q-2 10 -2 17q0 16 19 16h147q20 0 23 -20l151 -791l414 791q9 20 31 20h147q13 0 13 -14q0 -5 -5 -15l-589 -1099q-53 -99 -105 -164.5t-105 -100t-102.5 -48t-111.5 -13.5 q-83 0 -142 33q-16 9 -16 20zM475 1143q0 6 4 12l193 258q15 21 35 21h198q13 0 13 -9q0 -5 -7 -12l-262 -260q-18 -18 -41 -18h-123q-10 0 -10 8z" />
<glyph unicode="&#xfe;" horiz-adv-x="1267" d="M-16 -385l354 1798q3 21 24 21h127q17 0 17 -21l-96 -493q76 68 155 98.5t180 30.5q168 0 280 -113.5t112 -312.5q0 -131 -39.5 -247.5t-112 -204.5t-182.5 -139.5t-242 -51.5q-97 0 -183 40t-124 97l-102 -502q-3 -21 -25 -21h-127q-16 0 -16 21zM303 424 q0 -134 71.5 -213.5t186.5 -79.5q123 0 216 68.5t138.5 174.5t45.5 230q0 138 -64.5 215.5t-189.5 77.5q-90 0 -167 -40.5t-128.5 -107t-80 -151t-28.5 -174.5z" />
<glyph unicode="&#xff;" horiz-adv-x="1075" d="M-127 -373l2 13l21 110q6 21 20 21q9 0 24.5 -11.5t44 -22.5t68.5 -11q149 0 271 256l-218 1013q-2 10 -2 17q0 16 19 16h147q20 0 23 -20l151 -791l414 791q9 20 31 20h147q13 0 13 -14q0 -5 -5 -15l-589 -1099q-53 -99 -105 -164.5t-105 -100t-102.5 -48t-111.5 -13.5 q-83 0 -142 33q-16 9 -16 20zM348 1249l31 164q3 21 24 21h164q17 0 17 -21l-31 -164q-3 -20 -25 -20h-163q-17 0 -17 20zM688 1249l31 164q3 21 24 21h164q17 0 17 -21l-31 -164q-3 -20 -25 -20h-163q-17 0 -17 20z" />
<glyph unicode="&#x152;" horiz-adv-x="2242" d="M78 582q0 134 34 261.5t101.5 238t160.5 194t220 131t272 47.5q169 0 296.5 -64.5t203.5 -185.5l41 209q3 21 25 21h813q16 0 16 -21l-25 -123q-3 -20 -24 -20h-653l-84 -434h591q17 0 17 -21l-25 -123q-3 -20 -24 -20h-592l-99 -508h685q16 0 16 -21l-25 -123 q-3 -20 -24 -20h-844q-16 0 -16 20l26 138q-207 -178 -491 -178q-272 0 -432 161.5t-160 440.5zM262 594q0 -212 112.5 -331.5t305.5 -119.5q134 0 248 58t189 155t117 222.5t42 261.5q0 212 -113 331t-307 119q-134 0 -247.5 -58t-188.5 -154.5t-116.5 -222t-41.5 -261.5z " />
<glyph unicode="&#x153;" horiz-adv-x="2070" d="M57 403q0 132 45.5 250.5t125.5 205.5t196 138.5t250 51.5q136 0 238.5 -58.5t154.5 -161.5q85 102 206 161t267 59q192 0 302 -121.5t110 -309.5q0 -51 -10 -100l-7 -33q-6 -20 -24 -20h-803q-4 -28 -4 -53q0 -130 70 -205.5t202 -75.5q210 0 334 188q12 19 33 19h133 q10 0 10 -10q0 -9 -8 -25q-87 -169 -217 -246t-307 -77q-134 0 -230 61.5t-145 169.5q-86 -109 -209 -170t-272 -61q-199 0 -320 116.5t-121 306.5zM233 418q0 -133 76.5 -210t206.5 -77q120 0 217 65.5t150 175t53 238.5q0 133 -76 210t-205 77q-120 0 -217.5 -65.5 t-151 -175t-53.5 -238.5zM1139 616h645q0 134 -71.5 207.5t-201.5 73.5q-121 0 -219.5 -72t-152.5 -209z" />
<glyph unicode="&#x178;" horiz-adv-x="1081" d="M119 1413q0 21 16 21h162q8 0 11.5 -3.5t6.5 -13.5l203 -688l477 688q10 17 27 17h170q12 0 12 -11q0 -4 -4 -10l-622 -885l-101 -508q-3 -20 -24 -20h-140q-16 0 -16 20l100 508zM412 1655l30 164q3 20 25 20h164q16 0 16 -20l-31 -164q-3 -21 -24 -21h-164 q-16 0 -16 21zM752 1655l30 164q3 20 25 20h164q16 0 16 -20l-31 -164q-3 -21 -24 -21h-164q-16 0 -16 21z" />
<glyph unicode="&#x2c6;" horiz-adv-x="763" d="M133 1143q0 6 6 12l267 262q17 17 34 17h115q16 0 27 -17l163 -262q3 -4 3 -6q0 -14 -17 -14h-127q-18 0 -33 18l-100 129l-152 -129q-21 -18 -40 -18h-134q-12 0 -12 8z" />
<glyph unicode="&#x2dc;" horiz-adv-x="808" d="M137 1331q0 13 25 29q122 74 221 74q50 0 87.5 -13t55.5 -29t47 -29t66 -13q49 0 135 51q8 4 14 4q11 0 19 -16l45 -86q2 -5 2 -7q0 -10 -25 -28q-113 -74 -221 -74q-51 0 -88.5 13t-55 29t-46.5 29t-66 13q-49 0 -135 -51q-8 -4 -14 -4q-11 0 -19 16l-45 86q-2 4 -2 6z " />
<glyph unicode="&#x2000;" horiz-adv-x="940" />
<glyph unicode="&#x2001;" horiz-adv-x="1880" />
<glyph unicode="&#x2002;" horiz-adv-x="940" />
<glyph unicode="&#x2003;" horiz-adv-x="1880" />
<glyph unicode="&#x2004;" horiz-adv-x="626" />
<glyph unicode="&#x2005;" horiz-adv-x="470" />
<glyph unicode="&#x2006;" horiz-adv-x="313" />
<glyph unicode="&#x2007;" horiz-adv-x="313" />
<glyph unicode="&#x2008;" horiz-adv-x="235" />
<glyph unicode="&#x2009;" horiz-adv-x="376" />
<glyph unicode="&#x200a;" horiz-adv-x="104" />
<glyph unicode="&#x2010;" horiz-adv-x="1075" d="M133 641l23 119q3 20 24 20h746q16 0 16 -20l-22 -119q-3 -20 -25 -20h-745q-17 0 -17 20z" />
<glyph unicode="&#x2011;" horiz-adv-x="1075" d="M133 641l23 119q3 20 24 20h746q16 0 16 -20l-22 -119q-3 -20 -25 -20h-745q-17 0 -17 20z" />
<glyph unicode="&#x2012;" horiz-adv-x="1075" d="M133 641l23 119q3 20 24 20h746q16 0 16 -20l-22 -119q-3 -20 -25 -20h-745q-17 0 -17 20z" />
<glyph unicode="&#x2013;" horiz-adv-x="1193" d="M133 641l23 119q3 20 24 20h864q17 0 17 -20l-23 -119q-3 -20 -24 -20h-864q-17 0 -17 20z" />
<glyph unicode="&#x2014;" horiz-adv-x="1648" d="M133 641l23 119q3 20 24 20h1319q17 0 17 -20l-23 -119q-3 -20 -25 -20h-1318q-17 0 -17 20z" />
<glyph unicode="&#x2018;" horiz-adv-x="501" d="M166 1030l45 232q19 98 71.5 135t139.5 37h31q16 0 16 -21l-6 -33q-6 -20 -25 -20q-62 0 -88 -22t-39 -89l-8 -43h90q17 0 17 -20l-31 -156q-3 -20 -25 -20h-172q-16 0 -16 20z" />
<glyph unicode="&#x2019;" horiz-adv-x="501" d="M195 1030l6 33q6 20 24 20q62 0 88 22t39 89l8 43h-90q-16 0 -16 20l31 156q3 21 24 21h172q17 0 17 -21l-45 -231q-19 -98 -71.5 -135t-139.5 -37h-31q-16 0 -16 20z" />
<glyph unicode="&#x201a;" horiz-adv-x="501" d="M-23 -207l7 33q6 20 24 20q62 0 88 22t39 89l8 43h-90q-16 0 -16 20l31 156q3 21 24 21h172q17 0 17 -21l-45 -231q-19 -98 -71.5 -135t-139.5 -37h-31q-17 0 -17 20z" />
<glyph unicode="&#x201c;" horiz-adv-x="808" d="M166 1030l45 232q19 98 71.5 135t139.5 37h31q16 0 16 -21l-6 -33q-6 -20 -25 -20q-62 0 -88 -22t-39 -89l-8 -43h90q17 0 17 -20l-31 -156q-3 -20 -25 -20h-172q-16 0 -16 20zM473 1030l45 232q19 98 71.5 135t139.5 37h31q16 0 16 -21l-6 -33q-6 -20 -25 -20 q-62 0 -88 -22t-39 -89l-8 -43h90q17 0 17 -20l-31 -156q-3 -20 -24 -20h-173q-16 0 -16 20z" />
<glyph unicode="&#x201d;" horiz-adv-x="808" d="M195 1030l6 33q6 20 24 20q62 0 88 22t39 89l8 43h-90q-16 0 -16 20l31 156q3 21 24 21h172q17 0 17 -21l-45 -231q-19 -98 -71.5 -135t-139.5 -37h-31q-16 0 -16 20zM502 1030l6 33q6 20 24 20q62 0 88 22t39 89l9 43h-90q-17 0 -17 20l31 156q3 21 24 21h172 q17 0 17 -21l-45 -231q-19 -98 -71.5 -135t-139.5 -37h-31q-16 0 -16 20z" />
<glyph unicode="&#x201e;" horiz-adv-x="808" d="M-23 -207l7 33q6 20 24 20q62 0 88 22t39 89l8 43h-90q-16 0 -16 20l31 156q3 21 24 21h172q17 0 17 -21l-45 -231q-19 -98 -71.5 -135t-139.5 -37h-31q-17 0 -17 20zM285 -207l6 33q6 20 24 20q62 0 88 22t39 89l9 43h-91q-16 0 -16 20l31 156q3 21 24 21h172 q17 0 17 -21l-45 -231q-19 -98 -71.5 -135t-139.5 -37h-31q-16 0 -16 20z" />
<glyph unicode="&#x2022;" horiz-adv-x="780" d="M207 668q0 80 56.5 136t135.5 56q80 0 136.5 -56.5t56.5 -135.5q0 -80 -57 -136.5t-136 -56.5t-135.5 56.5t-56.5 136.5z" />
<glyph unicode="&#x2026;" horiz-adv-x="1497" d="M51 20l31 156q3 21 24 21h160q17 0 17 -21l-31 -156q-3 -20 -25 -20h-159q-17 0 -17 20zM520 20l31 156q3 21 24 21h160q17 0 17 -21l-31 -156q-3 -20 -25 -20h-159q-17 0 -17 20zM989 20l31 156q3 21 24 21h160q17 0 17 -21l-31 -156q-3 -20 -25 -20h-159q-17 0 -17 20z " />
<glyph unicode="&#x202f;" horiz-adv-x="376" />
<glyph unicode="&#x2039;" horiz-adv-x="733" d="M59 506l23 112q5 21 27 37l516 404q9 6 12 6q10 0 10 -14l-35 -185q-6 -20 -20 -32l-365 -285l254 -287q11 -11 11 -20q0 -1 -3 -13l-32 -157q-4 -15 -15 -15q-6 0 -12 6l-356 406q-15 15 -15 37z" />
<glyph unicode="&#x203a;" horiz-adv-x="733" d="M45 72l35 184q6 21 20 33l365 284l-254 287q-10 10 -10 21q0 4 2 12l33 158q4 14 14 14q6 0 12 -6l356 -406q15 -15 15 -37l-23 -112q-5 -22 -26 -37l-516 -404q-9 -6 -13 -6q-10 0 -10 15z" />
<glyph unicode="&#x205f;" horiz-adv-x="470" />
<glyph unicode="&#x20ac;" horiz-adv-x="1384" d="M-8 469l22 119q6 20 23 20h141q17 100 19 109q12 72 22 108h-139q-17 0 -17 21l23 119q3 20 25 20h165q94 231 258 350t361 119q219 0 336 -125.5t117 -335.5q-6 -20 -25 -20h-125q-8 0 -11 4.5t-5 15.5q-12 164 -85.5 232.5t-224.5 68.5q-269 0 -419 -309h434 q16 0 16 -20l-22 -119q-6 -21 -25 -21h-461q-21 -83 -26 -108q-9 -48 -15 -109h459q16 0 16 -20l-22 -119q-3 -20 -25 -20h-430q15 -160 90 -235t207 -75q145 0 249 72t171 229q9 21 25 21h129q16 0 16 -21q-73 -224 -230.5 -342t-379.5 -118q-192 0 -316 123.5t-137 345.5 h-168q-16 0 -16 20z" />
<glyph unicode="&#x2122;" horiz-adv-x="1439" d="M133 1343l14 70q3 21 25 21h496q16 0 16 -21l-14 -70q-3 -20 -25 -20h-188l-123 -635q-3 -20 -25 -20h-78q-16 0 -16 20l123 635h-188q-17 0 -17 20zM625 688l141 725q3 21 25 21h118q18 0 21 -17l88 -465l262 465q8 17 29 17h139q16 0 16 -21l-141 -725q-3 -20 -25 -20 h-77q-17 0 -17 20l113 586l-268 -469q-9 -12 -19 -12h-67q-12 0 -15 12l-92 469l-113 -586q-3 -20 -24 -20h-78q-16 0 -16 20z" />
<glyph unicode="&#x25fc;" horiz-adv-x="1024" d="M0 0v1024h1024v-1024h-1024z" />
<glyph unicode="&#xfb01;" horiz-adv-x="1323" d="M70 897l20 111q3 20 25 20h168l26 131q30 147 119 221t225 74q97 0 197 -51q14 -8 14 -29l-20 -100q-4 -19 -19 -19q-4 0 -14 5q-89 43 -170 43q-68 0 -111 -41.5t-57 -116.5l-22 -117h315q16 0 16 -20l-20 -111q-6 -20 -25 -20h-315l-168 -857q-3 -20 -25 -20h-127 q-16 0 -16 20l168 857h-168q-16 0 -16 20zM811 20l193 988q3 20 24 20h127q16 0 16 -20l-192 -988q-3 -20 -25 -20h-127q-16 0 -16 20zM1020 1237l35 176q3 21 24 21h185q16 0 16 -21l-35 -176q-3 -20 -24 -20h-185q-16 0 -16 20z" />
<glyph unicode="&#xfb02;" horiz-adv-x="1300" d="M70 897l20 111q3 20 25 20h168l26 131q30 147 119 221t225 74q97 0 197 -51q14 -8 14 -29l-20 -100q-4 -19 -19 -19q-4 0 -14 5q-89 43 -170 43q-68 0 -111 -41.5t-57 -116.5l-22 -117h315q16 0 16 -20l-20 -111q-6 -20 -25 -20h-315l-168 -857q-3 -20 -25 -20h-127 q-16 0 -16 20l168 857h-168q-16 0 -16 20zM811 20l272 1393q3 21 25 21h127q16 0 16 -21l-272 -1393q-3 -20 -25 -20h-127q-16 0 -16 20z" />
</font>
</defs>
</svg>
