<?xml version="1.0" encoding="utf-8"?>
<!-- Generator: Adobe Illustrator 19.1.0, SVG Export Plug-In . SVG Version: 6.00 Build 0)  -->
<svg version="1.1" id="Layer_1" xmlns="http://www.w3.org/2000/svg" xmlns:xlink="http://www.w3.org/1999/xlink" x="0px" y="0px"
	 viewBox="0 0 156 185" style="enable-background:new 0 0 156 185;" xml:space="preserve">
<g>
	<path d="M109.7,65.8c-2.8,0-5,2.2-5,5s2.2,5,5,5h22.7v91.7H40.7V75.8h22.7c2.8,0,5-2.2,5-5s-2.2-5-5-5H30.7v111.7h111.7V65.8H109.7
		z"/>
	<path d="M66.7,51.2l14.9-14.9v81.1c0,2.8,2.2,5,5,5s5-2.2,5-5V36.3l14.9,14.9c1,1,2.3,1.5,3.5,1.5s2.6-0.5,3.5-1.5c2-2,2-5.1,0-7.1
		l-27-27l-27,27c-2,2-2,5.1,0,7.1C61.5,53.1,64.7,53.1,66.7,51.2z"/>
</g>
</svg>
