<?xml version="1.0" encoding="utf-8"?>
<!-- Generator: Adobe Illustrator 19.1.0, SVG Export Plug-In . SVG Version: 6.00 Build 0)  -->
<svg version="1.1" id="Layer_1" xmlns="http://www.w3.org/2000/svg" xmlns:xlink="http://www.w3.org/1999/xlink" x="0px" y="0px"
	 viewBox="0 0 1452.5 174.4" style="enable-background:new 0 0 1452.5 174.4;" xml:space="preserve">
<g>
	<g>
		<polygon points="201,0 201,0 151,86.8 100.9,0 100.9,0 0,0 100.5,174.4 151,86.8 151,86.8 151,86.8 201.5,174.4 302,0 		"/>
		<polygon points="302,0 302,0 402.5,174.4 503,0 		"/>
	</g>
</g>
<g>
	<path d="M562,56.7c0-0.8,0.4-1.2,1.2-1.2h29.3c18.1,0,27,8.8,27,23.2c0,14.4-8.9,23.2-27,23.2h-18.3v34.5c0,0.8-0.4,1.2-1.2,1.2
		h-9.8c-0.8,0-1.2-0.4-1.2-1.2V56.7z M574.2,90.3h19.1c8.3,0,13.5-3.9,13.5-11.5s-5.2-11.5-13.5-11.5h-19.1V90.3z"/>
	<path d="M661.8,108.1v28.4c0,0.8-0.4,1.2-1.2,1.2h-9.8c-0.8,0-1.2-0.4-1.2-1.2v-28.4L624,56.7c-0.2-0.8,0.2-1.2,0.7-1.2h11.7
		c0.8,0,1.1,0.4,1.3,0.9l17.9,37.6l17.9-37.6c0.2-0.6,0.5-0.9,1.3-0.9h11.7c0.5,0,0.9,0.4,0.7,1.2L661.8,108.1z"/>
	<path d="M725.9,83.7l17.6-27c0.6-1.1,0.8-1.2,1.6-1.2h11.4c0.6,0,1.2,0.5,0.8,1.2l-24.5,37.6l27.5,42.1c0.4,0.7-0.2,1.2-0.8,1.2
		h-11.6c-0.8,0-1.1-0.1-1.6-1.2l-20.4-31.3l-20.4,31.3c-0.6,1.1-0.8,1.2-1.6,1.2h-11.6c-0.6,0-1.2-0.5-0.8-1.2l27.4-42.1l-24.4-37.6
		c-0.4-0.7,0.2-1.2,0.8-1.2h11.4c0.8,0,1.1,0.1,1.6,1.2L725.9,83.7z"/>
	<path d="M769.1,56.7c0-0.8,0.4-1.2,1.2-1.2h9.8c0.8,0,1.2,0.4,1.2,1.2v79.7c0,0.8-0.4,1.2-1.2,1.2h-9.8c-0.8,0-1.2-0.4-1.2-1.2
		V56.7z"/>
	<path d="M823.5,54.4c18.2,0,28.6,11.3,28.8,23.6c0,0.8-0.4,1.2-1.2,1.2h-9.8c-0.8,0-1.1-0.4-1.2-1.2c-0.8-7.6-7.7-11.8-16.6-11.8
		c-9.3,0-16.1,3.4-16.1,10.3c0,8,8.9,11,20.6,14.2c14.1,3.9,27,9.6,27,22.6c0,16.8-12.4,25.6-30.9,25.6c-17.5,0-31-11.7-31-26.7
		c0-0.8,0.4-1.2,1.2-1.2h9.8c0.8,0,1.2,0.4,1.2,1.2c0.6,9.4,7.5,15,18.8,15c12.3,0,18.8-4.1,18.8-13.1c0-6.3-8.8-10.3-20.2-13.1
		c-16.6-4.1-27.4-10.1-27.4-23.8C795.3,62.1,808.5,54.4,823.5,54.4z"/>
	<path d="M967.3,136.5c-0.2,0.8-0.5,1.2-1.3,1.2h-12.5c-0.8,0-1.1-0.4-1.3-1.2l-14.4-56.9l-14.4,56.9c-0.2,0.8-0.5,1.2-1.3,1.2
		h-12.5c-0.8,0-1.1-0.4-1.3-1.2L890,56.7c-0.2-0.8,0.1-1.2,0.9-1.2h10.4c0.8,0,1.3,0.4,1.4,1.2l13.5,63.8L931,62.4
		c0.2-0.8,0.6-1.2,1.4-1.2H943c0.8,0,1.2,0.4,1.4,1.2l14.8,58.1l13.5-63.8c0.1-0.8,0.6-1.2,1.4-1.2h10.4c0.8,0,1.2,0.4,0.9,1.2
		L967.3,136.5z"/>
	<path d="M1018.1,77.6c17.5,0,30.6,12.4,30.6,30.6c0,18.2-13.1,30.6-30.6,30.6c-17.5,0-30.6-12.4-30.6-30.6
		C987.5,90,1000.7,77.6,1018.1,77.6z M1018.1,127.8c10.8,0,18.4-7.9,18.4-19.6c0-11.7-7.6-19.6-18.4-19.6
		c-10.8,0-18.4,7.9-18.4,19.6C999.7,119.9,1007.4,127.8,1018.1,127.8z"/>
	<path d="M1099.5,90.9c0,0.7-0.2,1.3-0.9,1.3c-0.1,0-0.2,0-0.8-0.2c-4.8-2.3-7.7-3.3-12.3-3.3c-7.6,0-13.2,5.9-13.2,17.2v30.6
		c0,0.8-0.4,1.2-1.2,1.2h-9.1c-0.8,0-1.2-0.4-1.2-1.2V80c0-0.8,0.4-1.2,1.2-1.2h9.1c0.8,0,1.2,0.4,1.2,1.2v4.6
		c3.8-4,8.9-6.9,15.5-6.9c4.1,0,7.3,0.7,10.4,1.9c1.2,0.5,1.4,0.9,1.4,2.1V90.9z"/>
	<path d="M1110.2,56.7c0-0.8,0.4-1.2,1.2-1.2h9.1c0.8,0,1.2,0.4,1.2,1.2v79.7c0,0.8-0.4,1.2-1.2,1.2h-9.1c-0.8,0-1.2-0.4-1.2-1.2
		V56.7z"/>
	<path d="M1190,136.5c0,0.8-0.4,1.2-1.2,1.2h-9.1c-0.8,0-1.2-0.4-1.2-1.2v-4.3c-4.5,4.3-10.4,6.7-18.1,6.7
		c-15.8,0-26.5-12-26.5-30.6c0-18.6,10.7-30.6,26.5-30.6c7.5,0,13,2.7,18.1,6.8V56.7c0-0.8,0.4-1.2,1.2-1.2h9.1
		c0.8,0,1.2,0.4,1.2,1.2V136.5z M1162.8,88.6c-10.2,0-16.6,8.1-16.6,19.6c0,11.5,6.4,19.6,16.6,19.6c9.8,0,16.6-8.1,16.6-19.6
		C1179.5,96.7,1172.7,88.6,1162.8,88.6z"/>
	<path d="M1242.9,136.5c-0.2,0.8-0.5,1.2-1.3,1.2h-12.7c-0.8,0-1.1-0.4-1.3-1.2l-28.4-79.7c-0.2-0.7,0.1-1.2,0.9-1.2h11.5
		c0.8,0,1.2,0.4,1.4,1.2l22.2,66.1l22.2-66.1c0.2-0.8,0.6-1.2,1.4-1.2h11.5c0.8,0,1.2,0.5,0.9,1.2L1242.9,136.5z"/>
	<path d="M1277.3,56.7c0-0.8,0.4-1.2,1.2-1.2h11.7c0.8,0,1.2,0.4,1.2,1.2v11.7c0,0.8-0.4,1.2-1.2,1.2h-11.7c-0.8,0-1.2-0.4-1.2-1.2
		V56.7z M1278.6,80c0-0.8,0.4-1.2,1.2-1.2h9.1c0.8,0,1.2,0.4,1.2,1.2v56.5c0,0.8-0.4,1.2-1.2,1.2h-9.1c-0.8,0-1.2-0.4-1.2-1.2V80z"
		/>
	<path d="M1347.2,119c0.5-0.9,0.8-1.1,1.6-1.1h10c0.6,0,0.8,0.4,0.8,0.8c0,0.2,0,0.5-0.2,1.2c-4.9,13.1-14.5,18.9-28.1,18.9
		c-17.6,0-29.9-12.9-29.9-30.6c0-17.7,12.5-30.6,29.8-30.6c18.6,0,29.7,14.2,29.7,30.9v2.2c0,0.8-0.4,1.2-1.2,1.2h-46.1
		c1.3,9.8,7.9,15.8,17.7,15.8C1339.2,127.8,1344.3,125.2,1347.2,119z M1314,101.4h34.2c-2-8.4-8.8-12.8-17.1-12.8
		C1323.9,88.6,1316.4,92.5,1314,101.4z"/>
	<path d="M1434.8,136.5c-0.2,0.9-0.8,1.2-1.5,1.2h-10.6c-0.8,0-1.3-0.4-1.5-1.2l-11.7-39.4l-11.7,39.4c-0.2,0.8-0.7,1.2-1.5,1.2
		h-10.6c-0.7,0-1.3-0.2-1.5-1.2l-17.6-55.9c-0.1-0.5-0.1-0.7-0.1-0.9c0-0.6,0.5-0.8,0.9-0.8h10c1.2,0,1.4,0.4,1.6,1.2l11.7,42.7
		l12.1-39.9c0.2-0.8,0.4-1.2,1.3-1.2h10.8c0.9,0,1.1,0.4,1.3,1.2l12.1,39.9l11.7-42.7c0.2-0.8,0.5-1.2,1.6-1.2h10
		c0.5,0,0.9,0.2,0.9,0.8c0,0.2,0,0.5-0.1,0.9L1434.8,136.5z"/>
</g>
</svg>
